<svg width="127" height="59" viewBox="0 0 127 59" fill="none" xmlns="http://www.w3.org/2000/svg">
<g clip-path="url(#clip0_1_26)">
<path d="M0 32.3106V23.9444H2.92786C3.51166 23.9444 3.99254 24.0454 4.3705 24.244C4.74846 24.4444 5.03237 24.7122 5.21692 25.0491C5.40146 25.386 5.49551 25.7584 5.49551 26.1663C5.49551 26.5262 5.43163 26.8224 5.30564 27.0564C5.17965 27.2905 5.01285 27.4767 4.80702 27.6115C4.60118 27.748 4.3776 27.8491 4.13804 27.9129V27.9945C4.39357 28.0105 4.65264 28.1009 4.90994 28.264C5.16901 28.4272 5.38549 28.6612 5.55939 28.9662C5.73329 29.2712 5.82023 29.6436 5.82023 30.0852C5.82023 30.5267 5.72441 30.8814 5.53455 31.2165C5.34468 31.5517 5.04302 31.8177 4.63135 32.0127C4.21967 32.2095 3.68378 32.3071 3.02368 32.3071H0V32.3106ZM1.01322 27.6203H2.89415C3.19935 27.6203 3.4744 27.56 3.72282 27.4412C3.96947 27.3207 4.16466 27.1522 4.31194 26.9341C4.45745 26.716 4.5302 26.4606 4.5302 26.1663C4.5302 25.7992 4.40244 25.4871 4.14514 25.2282C3.88962 24.9711 3.48327 24.8416 2.92609 24.8416H1.01322V27.6203ZM1.01322 31.4116H3.02368C3.68556 31.4116 4.15579 31.2821 4.43615 31.025C4.71474 30.7679 4.85493 30.4558 4.85493 30.0869C4.85493 29.8032 4.78217 29.5408 4.63844 29.3014C4.49471 29.0602 4.28887 28.8669 4.02093 28.7215C3.75476 28.5761 3.43713 28.5034 3.07159 28.5034H1.01322V31.4116Z" fill="#442F91"/>
<path d="M8.68776 32.4578C8.29028 32.4578 7.92829 32.3815 7.60534 32.2308C7.28061 32.0801 7.02332 31.8602 6.83345 31.5729C6.64181 31.2857 6.54776 30.9381 6.54776 30.5285C6.54776 30.1685 6.61874 29.8759 6.76069 29.6525C6.90265 29.4273 7.09252 29.2517 7.32852 29.1241C7.5663 28.9964 7.82892 28.9006 8.11461 28.8368C8.40207 28.773 8.69131 28.7215 8.9841 28.6843C9.36561 28.6346 9.67614 28.5974 9.91391 28.5726C10.1517 28.546 10.3274 28.5016 10.4374 28.4396C10.5474 28.3775 10.6024 28.2676 10.6024 28.1133V28.0814C10.6024 27.6789 10.4924 27.365 10.2741 27.1416C10.0541 26.9181 9.72227 26.8064 9.27866 26.8064C8.83504 26.8064 8.45708 26.9075 8.19446 27.1096C7.93361 27.3118 7.74907 27.5264 7.6426 27.7551L6.72698 27.4288C6.89023 27.0476 7.10849 26.7497 7.38353 26.5369C7.6568 26.3223 7.95668 26.1734 8.28318 26.0865C8.60791 26.0013 8.92909 25.957 9.24494 25.957C9.44723 25.957 9.67968 25.9801 9.9423 26.0279C10.2049 26.0758 10.4604 26.1734 10.7071 26.3205C10.9537 26.4677 11.1578 26.6894 11.3228 26.9873C11.4861 27.2852 11.5677 27.6824 11.5677 28.1807V32.3159H10.6024V31.4665H10.5527C10.4871 31.6031 10.3788 31.7485 10.2262 31.9045C10.0736 32.0606 9.86955 32.1918 9.61758 32.3C9.36383 32.4081 9.05507 32.4631 8.68954 32.4631M8.83504 31.5924C9.21655 31.5924 9.5395 31.518 9.80212 31.3672C10.0647 31.2165 10.2635 31.0232 10.3983 30.7874C10.5332 30.5498 10.6006 30.3015 10.6006 30.0391V29.156C10.5598 29.2056 10.4711 29.25 10.3327 29.289C10.1943 29.328 10.0364 29.3617 9.85891 29.3901C9.67968 29.4184 9.50756 29.4433 9.33899 29.4645C9.17041 29.4858 9.03556 29.5018 8.93264 29.516C8.68244 29.5479 8.44821 29.6011 8.23172 29.6738C8.01524 29.7465 7.84134 29.8529 7.70826 29.9965C7.57517 30.1401 7.50952 30.3334 7.50952 30.5781C7.50952 30.9133 7.63373 31.1651 7.88393 31.3353C8.13235 31.5056 8.44998 31.5907 8.83504 31.5907" fill="#442F91"/>
<path d="M13.7787 28.5371V32.3124H12.8134V26.0368H13.745V27.0174H13.8266C13.9739 26.6982 14.1975 26.4429 14.4973 26.2478C14.7972 26.0528 15.1841 25.9552 15.6578 25.9552C16.0837 25.9552 16.4546 26.0421 16.774 26.2141C17.0934 26.3879 17.34 26.6486 17.5175 26.9979C17.6949 27.3473 17.7837 27.7906 17.7837 28.3243V32.3124H16.8183V28.3899C16.8183 27.897 16.6906 27.5122 16.4333 27.2355C16.1778 26.9589 15.8264 26.8206 15.3793 26.8206C15.0705 26.8206 14.7972 26.888 14.5559 27.021C14.3146 27.154 14.1247 27.349 13.9863 27.6044C13.8479 27.8597 13.7787 28.1718 13.7787 28.5353" fill="#442F91"/>
<path d="M21.4053 32.4418C20.8819 32.4418 20.4205 32.3088 20.0195 32.0429C19.6184 31.7769 19.3061 31.4009 19.079 30.9151C18.8536 30.4292 18.7401 29.8529 18.7401 29.1897C18.7401 28.5265 18.8536 27.959 19.079 27.4732C19.3044 26.9891 19.6202 26.6131 20.023 26.3507C20.4258 26.0865 20.8925 25.9535 21.4213 25.9535C21.8294 25.9535 22.1541 26.0209 22.3919 26.1556C22.6297 26.2904 22.8125 26.4429 22.9402 26.6131C23.0662 26.7834 23.1656 26.9235 23.2366 27.0316H23.3182V23.9426H24.2835V32.3088H23.3519V31.3442H23.2383C23.1674 31.4595 23.0662 31.6031 22.9367 31.7751C22.8054 31.9489 22.6191 32.1014 22.376 32.2361C22.1329 32.3709 21.8099 32.4383 21.4071 32.4383M21.5349 31.5765C21.9217 31.5765 22.2482 31.4754 22.5161 31.2715C22.7823 31.0693 22.9864 30.7874 23.1248 30.4256C23.2632 30.0639 23.3342 29.6472 23.3342 29.1737C23.3342 28.7003 23.2667 28.2942 23.1301 27.9431C22.9935 27.5902 22.793 27.3153 22.525 27.1185C22.2571 26.9217 21.9288 26.8224 21.5349 26.8224C21.1409 26.8224 20.786 26.927 20.5145 27.1345C20.2431 27.3419 20.0408 27.6257 19.9059 27.9803C19.771 28.335 19.7036 28.734 19.7036 29.1755C19.7036 29.617 19.7728 30.0267 19.9095 30.3902C20.0461 30.7537 20.2519 31.0427 20.5234 31.2555C20.7949 31.4701 21.1321 31.5765 21.5349 31.5765Z" fill="#442F91"/>
<path d="M26.6258 28.5371V32.3124H25.6605V23.9461H26.6258V27.0192H26.7074C26.8547 26.6947 27.0765 26.4376 27.3711 26.2443C27.6674 26.0528 28.0613 25.957 28.5546 25.957C28.9823 25.957 29.3567 26.0421 29.6796 26.2124C30.0008 26.3826 30.251 26.6433 30.4302 26.9926C30.6095 27.3419 30.6982 27.787 30.6982 28.3261V32.3142H29.7329V28.3917C29.7329 27.8934 29.6033 27.5068 29.346 27.2338C29.0888 26.9607 28.7321 26.8224 28.2778 26.8224C27.962 26.8224 27.6781 26.8898 27.4296 27.0227C27.1794 27.1557 26.9842 27.3508 26.8405 27.6062C26.6968 27.8615 26.6258 28.1736 26.6258 28.5371Z" fill="#442F91"/>
<path d="M32.4354 24.9906C32.2473 24.9906 32.0858 24.9268 31.9509 24.7991C31.8161 24.6714 31.7487 24.5171 31.7487 24.338C31.7487 24.1589 31.8161 24.0047 31.9509 23.877C32.0858 23.7493 32.2473 23.6855 32.4354 23.6855C32.6235 23.6855 32.7849 23.7493 32.9198 23.877C33.0547 24.0047 33.1221 24.1589 33.1221 24.338C33.1221 24.5171 33.0547 24.6714 32.9198 24.7991C32.7849 24.9268 32.6235 24.9906 32.4354 24.9906ZM31.9456 26.0368H32.9109V32.3124H31.9456V26.0368Z" fill="#442F91"/>
<path d="M36.6923 34.795C36.2256 34.795 35.8246 34.7364 35.491 34.6176C35.1556 34.4988 34.877 34.3446 34.6552 34.1513C34.4334 33.9598 34.256 33.7541 34.1264 33.5359L34.8948 32.9969C34.9817 33.1104 35.0917 33.2434 35.2266 33.3905C35.3597 33.5395 35.5442 33.6689 35.7767 33.7789C36.0091 33.8888 36.3161 33.9438 36.6941 33.9438C37.2016 33.9438 37.6186 33.8214 37.9486 33.5767C38.2787 33.332 38.4437 32.9472 38.4437 32.4241V31.1491H38.3621C38.2911 31.2626 38.1917 31.4045 38.0622 31.5712C37.9327 31.7379 37.7481 31.8868 37.5068 32.0163C37.2655 32.1457 36.9407 32.2095 36.5326 32.2095C36.0251 32.2095 35.5709 32.0907 35.1698 31.8496C34.767 31.6102 34.4512 31.2609 34.2169 30.8034C33.9845 30.3458 33.8674 29.7908 33.8674 29.1365C33.8674 28.4821 33.9809 27.9324 34.2063 27.4554C34.4317 26.9766 34.7475 26.6078 35.1503 26.3436C35.5531 26.0811 36.0198 25.9499 36.5486 25.9499C36.9567 25.9499 37.2832 26.0173 37.5228 26.1521C37.7641 26.2868 37.9486 26.4393 38.0782 26.6096C38.2077 26.7798 38.3071 26.9199 38.3781 27.0281H38.4756V26.0315H39.4072V32.4862C39.4072 33.0252 39.2848 33.465 39.0417 33.8037C38.7986 34.1424 38.4703 34.3924 38.0604 34.552C37.6505 34.7116 37.1945 34.7914 36.6923 34.7914M36.6604 31.3477C37.0472 31.3477 37.3737 31.2591 37.6417 31.0818C37.9078 30.9044 38.1119 30.6508 38.2503 30.3175C38.3887 29.9859 38.4597 29.5869 38.4597 29.1241C38.4597 28.6612 38.3922 28.2729 38.2556 27.9271C38.119 27.5813 37.9185 27.31 37.6505 27.115C37.3826 26.9181 37.0543 26.8206 36.6604 26.8206C36.2664 26.8206 35.9116 26.9235 35.6401 27.1309C35.3686 27.3384 35.1663 27.615 35.0314 27.9644C34.8966 28.3137 34.8291 28.7003 34.8291 29.1241C34.8291 29.5479 34.8983 29.9451 35.035 30.2785C35.1716 30.6118 35.3774 30.8743 35.6489 31.0622C35.9204 31.252 36.2576 31.346 36.6604 31.346" fill="#442F91"/>
<path d="M43.1904 34.795C42.7237 34.795 42.3227 34.7364 41.9891 34.6176C41.6537 34.4988 41.3751 34.3446 41.1533 34.1513C40.9315 33.9598 40.7541 33.7541 40.6245 33.5359L41.3929 32.9969C41.4798 33.1104 41.5898 33.2434 41.7247 33.3905C41.8578 33.5395 42.0423 33.6689 42.2748 33.7789C42.5072 33.8888 42.8142 33.9438 43.1922 33.9438C43.6997 33.9438 44.1167 33.8214 44.4467 33.5767C44.7768 33.332 44.9418 32.9472 44.9418 32.4241V31.1491H44.8602C44.7892 31.2626 44.6898 31.4045 44.5603 31.5712C44.4307 31.7379 44.2462 31.8868 44.0049 32.0163C43.7635 32.1457 43.4388 32.2095 43.0307 32.2095C42.5232 32.2095 42.0689 32.0907 41.6679 31.8496C41.2651 31.6102 40.9492 31.2609 40.715 30.8034C40.4826 30.3458 40.3654 29.7908 40.3654 29.1365C40.3654 28.4821 40.479 27.9324 40.7044 27.4554C40.9297 26.9766 41.2456 26.6078 41.6484 26.3436C42.0512 26.0811 42.5179 25.9499 43.0467 25.9499C43.4548 25.9499 43.7813 26.0173 44.0208 26.1521C44.2622 26.2868 44.4467 26.4393 44.5762 26.6096C44.7058 26.7798 44.8052 26.9199 44.8761 27.0281H44.9737V26.0315H45.9053V32.4862C45.9053 33.0252 45.7829 33.465 45.5398 33.8037C45.2967 34.1424 44.9684 34.3924 44.5585 34.552C44.1486 34.7116 43.6926 34.7914 43.1904 34.7914M43.1567 31.3477C43.5435 31.3477 43.87 31.2591 44.138 31.0818C44.4041 30.9044 44.6082 30.6508 44.7466 30.3175C44.885 29.9859 44.956 29.5869 44.956 29.1241C44.956 28.6612 44.8886 28.2729 44.7519 27.9271C44.6153 27.5813 44.4148 27.31 44.1468 27.115C43.8789 26.9181 43.5506 26.8206 43.1567 26.8206C42.7627 26.8206 42.4079 26.9235 42.1364 27.1309C41.8649 27.3384 41.6626 27.615 41.5277 27.9644C41.3929 28.3137 41.3254 28.7003 41.3254 29.1241C41.3254 29.5479 41.3946 29.9451 41.5313 30.2785C41.6679 30.6118 41.8737 30.8743 42.1452 31.0622C42.4167 31.252 42.7539 31.346 43.1567 31.346" fill="#442F91"/>
<path d="M49 32.4578C48.6025 32.4578 48.2405 32.3815 47.9158 32.2308C47.5911 32.0801 47.3338 31.8602 47.1439 31.5729C46.9523 31.2857 46.8582 30.9381 46.8582 30.5285C46.8582 30.1685 46.9292 29.8759 47.0711 29.6525C47.2131 29.4273 47.403 29.2517 47.639 29.1241C47.8768 28.9964 48.1394 28.9006 48.4251 28.8368C48.7125 28.773 49.0018 28.7215 49.2945 28.6843C49.6761 28.6346 49.9866 28.5974 50.2244 28.5726C50.4621 28.546 50.6378 28.5016 50.7478 28.4396C50.8578 28.3775 50.9129 28.2676 50.9129 28.1133V28.0814C50.9129 27.6789 50.8028 27.365 50.5846 27.1416C50.3646 26.9181 50.0327 26.8064 49.5891 26.8064C49.1455 26.8064 48.7675 26.9075 48.5049 27.1096C48.2441 27.3118 48.0595 27.5264 47.9531 27.7551L47.0374 27.4288C47.2007 27.0476 47.4189 26.7497 47.694 26.5369C47.9673 26.3223 48.2671 26.1734 48.5936 26.0865C48.9184 26.0013 49.2395 25.957 49.5554 25.957C49.7577 25.957 49.9901 25.9801 50.2528 26.0279C50.5154 26.0758 50.7709 26.1734 51.0176 26.3205C51.2642 26.4677 51.47 26.6894 51.6333 26.9873C51.7965 27.2852 51.8782 27.6824 51.8782 28.1807V32.3159H50.9129V31.4665H50.8632C50.7975 31.6031 50.6893 31.7485 50.5367 31.9045C50.3841 32.0606 50.18 32.1918 49.928 32.3C49.6743 32.4081 49.3655 32.4631 49 32.4631M49.1473 31.5924C49.5288 31.5924 49.8517 31.518 50.1144 31.3672C50.377 31.2165 50.5757 31.0232 50.7106 30.7874C50.8454 30.5498 50.9129 30.3015 50.9129 30.0391V29.156C50.872 29.2056 50.7833 29.25 50.6449 29.289C50.5065 29.328 50.3486 29.3617 50.1711 29.3901C49.9919 29.4184 49.8198 29.4433 49.6512 29.4645C49.4826 29.4858 49.3478 29.5018 49.2449 29.516C48.9947 29.5479 48.7604 29.6011 48.544 29.6738C48.3275 29.7465 48.1536 29.8529 48.0205 29.9965C47.8892 30.1401 47.8217 30.3334 47.8217 30.5781C47.8217 30.9133 47.946 31.1651 48.1962 31.3353C48.4446 31.5056 48.7622 31.5907 49.1473 31.5907" fill="#442F91"/>
<path d="M5.69957 38.8167C5.64279 38.6181 5.56117 38.4408 5.45825 38.2883C5.35533 38.134 5.22934 38.0028 5.08029 37.8964C4.93123 37.7882 4.76266 37.7067 4.57279 37.6499C4.38293 37.5932 4.17354 37.5648 3.94463 37.5648C3.51699 37.5648 3.1408 37.6712 2.81785 37.884C2.4949 38.0968 2.24292 38.4053 2.0637 38.8096C1.88448 39.2139 1.79399 39.7087 1.79399 40.2903C1.79399 40.8719 1.88271 41.3684 2.06015 41.7781C2.2376 42.1859 2.4878 42.498 2.81253 42.7108C3.13725 42.9254 3.52054 43.0318 3.9606 43.0318C4.36163 43.0318 4.7041 42.9608 4.98802 42.8172C5.27193 42.6736 5.49019 42.4714 5.64279 42.2107C5.79362 41.9483 5.86992 41.6398 5.86992 41.2833L6.23014 41.3365H4.07062V40.0048H7.57341V41.0581C7.57341 41.794 7.41725 42.4253 7.10672 42.952C6.79619 43.4786 6.36855 43.8847 5.82379 44.1702C5.27903 44.4539 4.65442 44.5976 3.95173 44.5976C3.16742 44.5976 2.47715 44.4238 1.88271 44.0762C1.28826 43.7287 0.825129 43.2339 0.495079 42.5938C0.163255 41.9518 -0.00177002 41.1911 -0.00177002 40.308C-0.00177002 39.6306 0.0975998 39.0242 0.294565 38.4922C0.49153 37.9602 0.770121 37.508 1.12679 37.1374C1.48345 36.7668 1.90045 36.4849 2.37423 36.2916C2.84802 36.0983 3.36261 36.0008 3.91447 36.0008C4.38825 36.0008 4.83009 36.0699 5.23822 36.2065C5.64634 36.343 6.01011 36.5381 6.32773 36.7881C6.64536 37.0381 6.90443 37.336 7.10672 37.6801C7.30901 38.0241 7.43855 38.4035 7.49533 38.8185H5.69603L5.69957 38.8167Z" fill="#442F91"/>
<path d="M12.3804 41.8082V38.2049H14.1212V44.4805H12.4496V43.3403H12.384C12.242 43.7074 12.0078 44.0035 11.6795 44.2269C11.3512 44.4504 10.952 44.5621 10.48 44.5621C10.0612 44.5621 9.69033 44.4663 9.3727 44.2766C9.05507 44.0869 8.80487 43.8155 8.62565 43.4627C8.44643 43.1116 8.35593 42.6913 8.35416 42.2001V38.2049H10.0967V41.8898C10.0985 42.2604 10.1996 42.553 10.3948 42.7675C10.5918 42.9821 10.8544 43.0903 11.1844 43.0903C11.3938 43.0903 11.5908 43.0424 11.7735 42.9449C11.9563 42.8491 12.1036 42.7055 12.2172 42.514C12.3307 42.3225 12.3857 42.0884 12.3822 41.8064" fill="#442F91"/>
<path d="M19.0205 41.8082V38.2049H20.7612V44.4805H19.0897V43.3403H19.024C18.882 43.7074 18.6478 44.0035 18.3195 44.2269C17.9913 44.4504 17.592 44.5621 17.12 44.5621C16.7012 44.5621 16.3304 44.4663 16.0127 44.2766C15.6951 44.0869 15.4449 43.8155 15.2675 43.4627C15.0882 43.1116 14.9977 42.6913 14.996 42.2001V38.2049H16.7385V41.8898C16.742 42.2604 16.8414 42.553 17.0366 42.7675C17.2336 42.9821 17.4962 43.0903 17.8262 43.0903C18.0356 43.0903 18.2326 43.0424 18.4154 42.9449C18.5981 42.8491 18.7454 42.7055 18.859 42.514C18.9725 42.3225 19.0275 42.0884 19.024 41.8064" fill="#442F91"/>
<path d="M23.375 36.1125H21.6342V44.4788H23.375V36.1125Z" fill="#442F91"/>
<path d="M27.1084 44.6029C26.4625 44.6029 25.9071 44.4717 25.4422 44.2092C24.9773 43.9468 24.6189 43.5726 24.3687 43.0903C24.1185 42.6062 23.9925 42.0334 23.9925 41.372C23.9925 40.7106 24.1185 40.1609 24.3687 39.6732C24.6189 39.1856 24.9738 38.8061 25.4298 38.533C25.8858 38.2599 26.4217 38.1251 27.0392 38.1251C27.4527 38.1251 27.8395 38.1908 28.198 38.3238C28.5564 38.4567 28.8705 38.6536 29.1384 38.9178C29.4064 39.182 29.6158 39.5136 29.7666 39.9126C29.9156 40.3116 29.9919 40.778 29.9919 41.3117V41.7905H24.6899V40.7123H28.3523C28.3523 40.4623 28.2973 40.2407 28.1891 40.0456C28.0809 39.8523 27.93 39.6998 27.7366 39.5899C27.545 39.4799 27.3214 39.425 27.0676 39.425C26.8139 39.425 26.569 39.4852 26.3667 39.6076C26.1644 39.7282 26.0047 39.8913 25.8912 40.0935C25.7776 40.2956 25.7173 40.5226 25.7155 40.7691V41.794C25.7155 42.1044 25.774 42.3721 25.8894 42.5991C26.0047 42.8261 26.1698 42.9998 26.3827 43.1222C26.5956 43.2446 26.8476 43.3066 27.1386 43.3066C27.332 43.3066 27.5095 43.28 27.6692 43.2251C27.8289 43.1701 27.9673 43.0885 28.0826 42.9803C28.198 42.8722 28.2849 42.7374 28.3435 42.5796L29.9547 42.686C29.8731 43.0726 29.7063 43.4095 29.4543 43.6967C29.2023 43.984 28.8776 44.2074 28.4819 44.367C28.0862 44.5266 27.6284 44.6064 27.1102 44.6064" fill="#442F91"/>
<path d="M31.5091 46.8319C31.2891 46.8319 31.0815 46.8141 30.8898 46.7804C30.6982 46.7468 30.5385 46.7042 30.4143 46.651L30.8064 45.3512C31.0105 45.4133 31.195 45.4469 31.3601 45.454C31.5251 45.4594 31.6688 45.4221 31.7895 45.3388C31.9101 45.2572 32.0095 45.1189 32.0858 44.9221L32.1887 44.6561L29.937 38.2014H31.7682L33.0689 42.8101H33.1345L34.4476 38.2014H36.2913L33.8514 45.1544C33.7343 45.4913 33.5764 45.7874 33.3759 46.0392C33.1753 46.291 32.9234 46.4861 32.6182 46.6226C32.313 46.7609 31.9456 46.8283 31.5144 46.8283" fill="#442F91"/>
<path d="M41.8844 39.9942L40.2891 40.0917C40.2625 39.9552 40.204 39.8328 40.1135 39.7211C40.023 39.6111 39.9059 39.5225 39.7604 39.4551C39.6148 39.3877 39.441 39.354 39.2387 39.354C38.9689 39.354 38.7418 39.4108 38.5555 39.5243C38.3709 39.6377 38.2769 39.7885 38.2769 39.9764C38.2769 40.1272 38.3372 40.2531 38.4561 40.3559C38.5768 40.4588 38.7809 40.5421 39.0736 40.6042L40.2093 40.8329C40.8197 40.9588 41.274 41.1592 41.5739 41.4376C41.8737 41.716 42.0246 42.0795 42.0246 42.5317C42.0246 42.9431 41.9039 43.3048 41.6626 43.6152C41.4212 43.9255 41.0912 44.1667 40.6724 44.3404C40.2537 44.5124 39.7728 44.5993 39.228 44.5993C38.3976 44.5993 37.7357 44.4256 37.2442 44.078C36.7526 43.7304 36.4634 43.257 36.38 42.6576L38.0924 42.5672C38.1438 42.8207 38.2698 43.0123 38.4685 43.1453C38.6673 43.2765 38.9228 43.3439 39.2333 43.3439C39.5439 43.3439 39.7852 43.2853 39.9715 43.1665C40.1578 43.0477 40.2519 42.8952 40.2554 42.7073C40.2519 42.5494 40.1862 42.42 40.0549 42.3171C39.9236 42.2143 39.7231 42.1363 39.4498 42.0831L38.3621 41.8667C37.7481 41.7444 37.2939 41.5316 36.994 41.2301C36.6959 40.9269 36.5468 40.5421 36.5468 40.074C36.5468 39.6714 36.6568 39.3239 36.8751 39.0313C37.0951 38.7405 37.4039 38.5153 37.8031 38.3574C38.2024 38.1996 38.6708 38.1198 39.2067 38.1198C39.9999 38.1198 40.6245 38.2865 41.0806 38.6217C41.5366 38.9568 41.8028 39.4125 41.8791 39.9906" fill="#442F91"/>
<path d="M45.9497 39.5118H42.1683V38.2049H45.9497V39.5118ZM43.0271 36.7012H44.7679V42.5512C44.7679 42.7126 44.7927 42.8367 44.8406 42.9254C44.8903 43.014 44.9578 43.0761 45.0465 43.1116C45.1352 43.147 45.2381 43.1648 45.3552 43.1648C45.4369 43.1648 45.5185 43.1577 45.6001 43.1417C45.6817 43.1275 45.7438 43.1151 45.7882 43.1062L46.0615 44.4007C45.9745 44.4273 45.8521 44.4592 45.6942 44.4965C45.5362 44.5337 45.3428 44.555 45.1175 44.5639C44.6969 44.5798 44.3314 44.5249 44.0155 44.3972C43.7014 44.2695 43.4566 44.0709 43.2827 43.8014C43.1088 43.5318 43.0218 43.1914 43.0254 42.78V36.7012H43.0271Z" fill="#442F91"/>
<path d="M48.3541 44.5976C47.9531 44.5976 47.5964 44.5266 47.2823 44.3865C46.9682 44.2464 46.7216 44.0372 46.5406 43.7623C46.3596 43.4857 46.2691 43.1399 46.2691 42.7268C46.2691 42.3774 46.333 42.0848 46.4607 41.849C46.5885 41.6114 46.7642 41.4216 46.9842 41.278C47.2042 41.1344 47.4562 41.0244 47.7383 40.9517C48.0205 40.8773 48.3168 40.8258 48.6273 40.7957C48.9929 40.7584 49.2874 40.7212 49.511 40.6875C49.7346 40.6538 49.8961 40.6024 49.9972 40.535C50.0984 40.4676 50.1481 40.3666 50.1481 40.2318V40.207C50.1481 39.9481 50.0664 39.7477 49.905 39.6058C49.7435 39.464 49.5128 39.393 49.2165 39.393C48.9024 39.393 48.654 39.4622 48.4676 39.5987C48.2813 39.7353 48.1589 39.909 48.1003 40.1147L46.4891 39.9835C46.5707 39.6023 46.7322 39.2724 46.9718 38.9923C47.2113 38.7139 47.5219 38.4975 47.9016 38.3468C48.2813 38.1961 48.7232 38.1198 49.2236 38.1198C49.5731 38.1198 49.9067 38.1606 50.2279 38.2422C50.5491 38.3238 50.833 38.4497 51.0832 38.6217C51.3334 38.7937 51.5286 39.0136 51.6741 39.2813C51.8178 39.5491 51.8906 39.87 51.8906 40.2424V44.4752H50.2386V43.6045H50.1889C50.0877 43.8014 49.9529 43.9734 49.7843 44.1205C49.6157 44.2695 49.4117 44.3848 49.1757 44.4681C48.9379 44.5515 48.6646 44.5922 48.3541 44.5922M48.8527 43.3971C49.1082 43.3971 49.3354 43.3456 49.5306 43.2446C49.7275 43.1417 49.8801 43.0052 49.9919 42.8296C50.1037 42.6558 50.1605 42.4572 50.1605 42.2373V41.5724C50.1055 41.6078 50.031 41.6398 49.9369 41.6681C49.8429 41.6965 49.7382 41.7231 49.6193 41.7461C49.5022 41.7692 49.385 41.7905 49.2679 41.8082C49.1508 41.8259 49.0443 41.8419 48.9485 41.8543C48.7445 41.8845 48.5652 41.9323 48.4126 41.998C48.26 42.0636 48.1411 42.1505 48.0577 42.2622C47.9726 42.3721 47.9318 42.5087 47.9318 42.6718C47.9318 42.9094 48.0187 43.0885 48.1908 43.2126C48.363 43.3368 48.583 43.3988 48.8509 43.3988" fill="#442F91"/>
<path d="M53.5728 46.8319C53.3527 46.8319 53.1451 46.8141 52.9535 46.7804C52.7618 46.7468 52.6021 46.7042 52.4779 46.651L52.8701 45.3512C53.0741 45.4133 53.2587 45.4469 53.4237 45.454C53.5887 45.4594 53.7325 45.4221 53.8531 45.3388C53.9738 45.2572 54.0732 45.1189 54.1495 44.9221L54.2524 44.6561L52.0006 38.2014H53.8318L55.1325 42.8101H55.1982L56.5113 38.2014H58.3549L55.9151 45.1544C55.7979 45.4913 55.64 45.7874 55.4395 46.0392C55.239 46.291 54.987 46.4861 54.6818 46.6226C54.3766 46.7609 54.0093 46.8283 53.5781 46.8283" fill="#442F91"/>
<path d="M60.3388 44.5976C59.9378 44.5976 59.5811 44.5266 59.267 44.3865C58.9529 44.2464 58.7063 44.0372 58.5253 43.7623C58.3443 43.4857 58.2538 43.1399 58.2538 42.7268C58.2538 42.3774 58.3177 42.0848 58.4454 41.849C58.5732 41.6114 58.7471 41.4216 58.9689 41.278C59.1889 41.1344 59.4409 41.0244 59.7231 40.9517C60.0052 40.8773 60.3015 40.8258 60.6121 40.7957C60.9776 40.7584 61.2722 40.7212 61.4957 40.6875C61.7193 40.6538 61.8808 40.6024 61.9819 40.535C62.0831 40.4676 62.1328 40.3666 62.1328 40.2318V40.207C62.1328 39.9481 62.0511 39.7477 61.8897 39.6058C61.7282 39.464 61.4975 39.393 61.2012 39.393C60.8871 39.393 60.6387 39.4622 60.4524 39.5987C60.2678 39.7353 60.1436 39.909 60.085 40.1147L58.4738 39.9835C58.5555 39.6023 58.7169 39.2724 58.9565 38.9923C59.196 38.7139 59.5066 38.4975 59.8863 38.3468C60.266 38.1961 60.7079 38.1198 61.2083 38.1198C61.5578 38.1198 61.8914 38.1606 62.2126 38.2422C62.5338 38.3238 62.8177 38.4497 63.0679 38.6217C63.3163 38.7937 63.5133 39.0136 63.6588 39.2813C63.8043 39.5491 63.8753 39.87 63.8753 40.2424V44.4752H62.2233V43.6045H62.1736C62.0724 43.8014 61.9376 43.9734 61.769 44.1205C61.6004 44.2695 61.3964 44.3848 61.1604 44.4681C60.9226 44.5515 60.6493 44.5922 60.3388 44.5922M60.8374 43.3971C61.0929 43.3971 61.3201 43.3456 61.5153 43.2446C61.7122 43.1417 61.8648 43.0052 61.9766 42.8296C62.0884 42.6558 62.1452 42.4572 62.1452 42.2373V41.5724C62.0902 41.6078 62.0157 41.6398 61.9216 41.6681C61.8276 41.6965 61.7229 41.7231 61.6058 41.7461C61.4886 41.7692 61.3715 41.7905 61.2544 41.8082C61.1373 41.8259 61.0308 41.8419 60.935 41.8543C60.7309 41.8845 60.5517 41.9323 60.3991 41.998C60.2465 42.0636 60.1276 42.1505 60.0442 42.2622C59.9591 42.3721 59.9182 42.5087 59.9182 42.6718C59.9182 42.9094 60.0052 43.0885 60.1773 43.2126C60.3494 43.3368 60.5712 43.3988 60.8374 43.3988" fill="#442F91"/>
<path d="M66.5015 44.5976C66.1005 44.5976 65.7438 44.5266 65.4297 44.3865C65.1156 44.2464 64.869 44.0372 64.688 43.7623C64.507 43.4857 64.4165 43.1399 64.4165 42.7268C64.4165 42.3774 64.4804 42.0848 64.6081 41.849C64.7359 41.6114 64.9116 41.4216 65.1316 41.278C65.3516 41.1344 65.6036 41.0244 65.8858 40.9517C66.1679 40.8773 66.4642 40.8258 66.7748 40.7957C67.1403 40.7584 67.4349 40.7212 67.6584 40.6875C67.882 40.6538 68.0435 40.6024 68.1446 40.535C68.2458 40.4676 68.2955 40.3666 68.2955 40.2318V40.207C68.2955 39.9481 68.2139 39.7477 68.0524 39.6058C67.8909 39.464 67.6602 39.393 67.3639 39.393C67.0498 39.393 66.8014 39.4622 66.6151 39.5987C66.4305 39.7353 66.3063 39.909 66.2477 40.1147L64.6365 39.9835C64.7182 39.6023 64.8796 39.2724 65.1192 38.9923C65.3587 38.7139 65.6693 38.4975 66.049 38.3468C66.4287 38.1961 66.8706 38.1198 67.371 38.1198C67.7206 38.1198 68.0541 38.1606 68.3753 38.2422C68.6965 38.3238 68.9804 38.4497 69.2306 38.6217C69.479 38.7937 69.676 39.0136 69.8215 39.2813C69.967 39.5491 70.038 39.87 70.038 40.2424V44.4752H68.386V43.6045H68.3363C68.2351 43.8014 68.1003 43.9734 67.9317 44.1205C67.7631 44.2695 67.5591 44.3848 67.3231 44.4681C67.0853 44.5515 66.812 44.5922 66.5015 44.5922M67.0001 43.3971C67.2556 43.3971 67.4828 43.3456 67.678 43.2446C67.8749 43.1417 68.0275 43.0052 68.1393 42.8296C68.2511 42.6558 68.3079 42.4572 68.3079 42.2373V41.5724C68.2529 41.6078 68.1784 41.6398 68.0843 41.6681C67.9903 41.6965 67.8856 41.7231 67.7685 41.7461C67.6514 41.7692 67.5342 41.7905 67.4171 41.8082C67.3 41.8259 67.1935 41.8419 67.0977 41.8543C66.8937 41.8845 66.7144 41.9323 66.5618 41.998C66.4092 42.0636 66.2903 42.1505 66.2069 42.2622C66.1218 42.3721 66.0809 42.5087 66.0809 42.6718C66.0809 42.9094 66.1679 43.0885 66.34 43.2126C66.5121 43.3368 66.734 43.3988 67.0001 43.3988" fill="#442F91"/>
<path d="M76.096 39.9942L74.5008 40.0917C74.4742 39.9552 74.4156 39.8328 74.3251 39.7211C74.2346 39.6111 74.1175 39.5225 73.972 39.4551C73.8265 39.3877 73.6526 39.354 73.4503 39.354C73.1806 39.354 72.9534 39.4108 72.7671 39.5243C72.5826 39.6377 72.4885 39.7885 72.4885 39.9764C72.4885 40.1272 72.5489 40.2531 72.6678 40.3559C72.7884 40.4588 72.9943 40.5421 73.2853 40.6042L74.4209 40.8329C75.0313 40.9588 75.4874 41.1592 75.7873 41.4376C76.0872 41.716 76.2362 42.0795 76.2362 42.5317C76.2362 42.9431 76.1155 43.3048 75.8742 43.6152C75.6329 43.9255 75.3028 44.1667 74.8841 44.3404C74.4653 44.5124 73.9844 44.5993 73.4397 44.5993C72.6092 44.5993 71.9473 44.4256 71.4558 44.078C70.9643 43.7304 70.675 43.257 70.5916 42.6576L72.304 42.5672C72.3555 42.8207 72.4814 43.0123 72.6802 43.1453C72.8789 43.2765 73.1344 43.3439 73.445 43.3439C73.7555 43.3439 73.9968 43.2853 74.1832 43.1665C74.3695 43.0477 74.4635 42.8952 74.4671 42.7073C74.4635 42.5494 74.3979 42.42 74.2666 42.3171C74.1352 42.2143 73.9347 42.1363 73.6615 42.0831L72.5737 41.8667C71.9598 41.7444 71.5055 41.5316 71.2056 41.2301C70.9075 40.9269 70.7584 40.5421 70.7584 40.074C70.7584 39.6714 70.8685 39.3239 71.0867 39.0313C71.3067 38.7405 71.6155 38.5153 72.0148 38.3574C72.414 38.1996 72.8825 38.1198 73.4184 38.1198C74.2115 38.1198 74.8362 38.2865 75.2922 38.6217C75.7482 38.9568 76.0144 39.4125 76.0907 39.9906" fill="#442F91"/>
<path d="M78.5625 40.8524V44.4805H76.8218V36.1143H78.5146V39.3132H78.5891C78.7311 38.9426 78.96 38.6518 79.2759 38.4408C79.5917 38.2298 79.9892 38.1234 80.4647 38.1234C80.9013 38.1234 81.281 38.2174 81.6075 38.4071C81.9322 38.5968 82.186 38.8681 82.367 39.2193C82.548 39.5721 82.6385 39.9942 82.6349 40.4836V44.4787H80.8942V40.7939C80.8977 40.4073 80.8001 40.1059 80.6014 39.8913C80.4044 39.6768 80.1276 39.5686 79.7727 39.5686C79.5349 39.5686 79.3273 39.6182 79.1445 39.7193C78.9636 39.8204 78.8216 39.9658 78.7187 40.1591C78.6158 40.3506 78.5643 40.5811 78.5608 40.8507" fill="#442F91"/>
<path d="M85.2806 44.5976C84.8796 44.5976 84.5229 44.5266 84.2088 44.3865C83.8948 44.2464 83.6481 44.0372 83.4671 43.7623C83.2861 43.4857 83.1956 43.1399 83.1956 42.7268C83.1956 42.3774 83.2595 42.0848 83.3873 41.849C83.515 41.6114 83.6907 41.4216 83.9107 41.278C84.1308 41.1344 84.3827 41.0244 84.6649 40.9517C84.947 40.8773 85.2434 40.8258 85.5539 40.7957C85.9194 40.7584 86.214 40.7212 86.4376 40.6875C86.6612 40.6538 86.8226 40.6024 86.9238 40.535C87.0249 40.4676 87.0746 40.3666 87.0746 40.2318V40.207C87.0746 39.9481 86.993 39.7477 86.8315 39.6058C86.67 39.464 86.4393 39.393 86.143 39.393C85.8289 39.393 85.5805 39.4622 85.3942 39.5987C85.2096 39.7353 85.0854 39.909 85.0269 40.1147L83.4157 39.9835C83.4973 39.6023 83.6588 39.2724 83.8983 38.9923C84.1379 38.7139 84.4484 38.4975 84.8281 38.3468C85.2079 38.1961 85.6497 38.1198 86.1501 38.1198C86.4997 38.1198 86.8333 38.1606 87.1545 38.2422C87.4756 38.3238 87.7595 38.4497 88.0097 38.6217C88.2582 38.7937 88.4551 39.0136 88.6006 39.2813C88.7461 39.5491 88.8171 39.87 88.8171 40.2424V44.4752H87.1651V43.6045H87.1154C87.0143 43.8014 86.8794 43.9734 86.7108 44.1205C86.5423 44.2695 86.3382 44.3848 86.1022 44.4681C85.8644 44.5515 85.5912 44.5922 85.2806 44.5922M85.7792 43.3971C86.0348 43.3971 86.2619 43.3456 86.4571 43.2446C86.6541 43.1417 86.8067 43.0052 86.9185 42.8296C87.0302 42.6558 87.087 42.4572 87.087 42.2373V41.5724C87.032 41.6078 86.9575 41.6398 86.8634 41.6681C86.7694 41.6965 86.6647 41.7231 86.5476 41.7461C86.4305 41.7692 86.3134 41.7905 86.1962 41.8082C86.0791 41.8259 85.9727 41.8419 85.8768 41.8543C85.6728 41.8845 85.4936 41.9323 85.341 41.998C85.1884 42.0636 85.0695 42.1505 84.9861 42.2622C84.9009 42.3721 84.8601 42.5087 84.8601 42.6718C84.8601 42.9094 84.947 43.0885 85.1191 43.2126C85.2913 43.3368 85.5131 43.3988 85.7792 43.3988" fill="#442F91"/>
<path d="M4.81234 50.6869C4.77863 50.3571 4.63844 50.1018 4.39179 49.9191C4.14337 49.7365 3.80799 49.646 3.38212 49.646C3.09289 49.646 2.84979 49.6868 2.65105 49.7666C2.45231 49.8464 2.2997 49.9581 2.19501 50.1C2.09032 50.2419 2.03708 50.4014 2.03708 50.5823C2.03176 50.733 2.0637 50.8625 2.1329 50.9742C2.20211 51.0859 2.29793 51.1817 2.42037 51.2615C2.5428 51.3413 2.68476 51.4104 2.84624 51.469C3.00771 51.5275 3.17806 51.5771 3.36083 51.6179L4.1132 51.797C4.47874 51.8786 4.81411 51.9885 5.11932 52.1233C5.42453 52.2598 5.68892 52.4265 5.91251 52.6251C6.13609 52.8237 6.30999 53.0578 6.4342 53.3273C6.55841 53.5969 6.62229 53.9054 6.62407 54.2547C6.62052 54.7672 6.49098 55.2105 6.23368 55.5847C5.97639 55.9588 5.60552 56.2497 5.1211 56.4554C4.63667 56.6611 4.05465 56.7639 3.37325 56.7639C2.69186 56.7639 2.10983 56.6611 1.60944 56.4536C1.10904 56.2461 0.720431 55.9393 0.440067 55.5315C0.159702 55.1272 0.0141957 54.6218 0 54.0207H1.71236C1.73187 54.3009 1.8135 54.5349 1.95546 54.7211C2.09919 54.9073 2.29083 55.0474 2.53216 55.1414C2.77348 55.2354 3.04675 55.2815 3.35196 55.2815C3.65717 55.2815 3.91269 55.2389 4.1345 55.1502C4.3563 55.0634 4.52843 54.9428 4.65086 54.7867C4.7733 54.6307 4.83541 54.4534 4.83541 54.2512C4.83541 54.0632 4.7804 53.9054 4.67038 53.7777C4.56037 53.6501 4.39889 53.5401 4.18773 53.4515C3.97657 53.361 3.7175 53.2794 3.41229 53.2067L2.50022 52.978C1.79398 52.806 1.2368 52.5382 0.828674 52.1729C0.420547 51.8076 0.216484 51.3164 0.220033 50.6976C0.216484 50.1904 0.353118 49.7489 0.626385 49.3694C0.899652 48.9917 1.27761 48.6956 1.75672 48.4828C2.23582 48.27 2.78058 48.1636 3.391 48.1636C4.00141 48.1636 4.55504 48.27 5.01995 48.4828C5.48486 48.6956 5.84685 48.9917 6.10592 49.3694C6.36499 49.7489 6.49808 50.1869 6.50695 50.6852H4.81057L4.81234 50.6869Z" fill="#442F91"/>
<path d="M10.0949 56.771C9.45967 56.771 8.91136 56.6362 8.45 56.3649C7.98864 56.0936 7.63197 55.7159 7.38 55.23C7.1298 54.7442 7.00381 54.1803 7.00381 53.5366C7.00381 52.8929 7.1298 52.3219 7.38 51.8342C7.6302 51.3484 7.98687 50.9689 8.45 50.6994C8.91136 50.428 9.45967 50.2933 10.0949 50.2933C10.7302 50.2933 11.2785 50.428 11.7399 50.6994C12.2012 50.9707 12.5579 51.3484 12.8081 51.8342C13.0583 52.3201 13.1843 52.8876 13.1843 53.5366C13.1843 54.1856 13.0583 54.7442 12.8081 55.23C12.5579 55.7159 12.2012 56.0954 11.7399 56.3649C11.2785 56.6362 10.7302 56.771 10.0949 56.771ZM10.102 55.4216C10.3913 55.4216 10.6326 55.34 10.826 55.1751C11.0194 55.0102 11.1667 54.785 11.2661 54.4995C11.3654 54.214 11.4151 53.8877 11.4151 53.5224C11.4151 53.1571 11.3654 52.8326 11.2661 52.5453C11.1667 52.2598 11.0212 52.0328 10.826 51.8679C10.6326 51.7012 10.3913 51.6197 10.102 51.6197C9.81279 51.6197 9.56614 51.703 9.3674 51.8679C9.17043 52.0346 9.02138 52.2598 8.92201 52.5453C8.82264 52.8308 8.77295 53.1571 8.77295 53.5224C8.77295 53.8877 8.82264 54.2122 8.92201 54.4995C9.02138 54.785 9.17043 55.0102 9.3674 55.1751C9.56436 55.34 9.80924 55.4216 10.102 55.4216Z" fill="#442F91"/>
<path d="M16.6409 56.771C16.0056 56.771 15.4573 56.6362 14.996 56.3649C14.5346 56.0936 14.1779 55.7159 13.926 55.23C13.6758 54.7442 13.5498 54.1803 13.5498 53.5366C13.5498 52.8929 13.6758 52.3219 13.926 51.8342C14.1762 51.3484 14.5328 50.9689 14.996 50.6994C15.4573 50.428 16.0056 50.2933 16.6409 50.2933C17.2761 50.2933 17.8245 50.428 18.2858 50.6994C18.7472 50.9707 19.1038 51.3484 19.354 51.8342C19.6042 52.3201 19.7302 52.8876 19.7302 53.5366C19.7302 54.1856 19.6042 54.7442 19.354 55.23C19.1038 55.7159 18.7472 56.0954 18.2858 56.3649C17.8245 56.6362 17.2744 56.771 16.6409 56.771ZM16.648 55.4216C16.9372 55.4216 17.1785 55.34 17.372 55.1751C17.5654 55.0102 17.7127 54.785 17.812 54.4995C17.9114 54.214 17.9611 53.8877 17.9611 53.5224C17.9611 53.1571 17.9114 52.8326 17.812 52.5453C17.7127 52.2598 17.5654 52.0328 17.372 51.8679C17.1785 51.7012 16.9372 51.6197 16.648 51.6197C16.3587 51.6197 16.1121 51.703 15.9134 51.8679C15.7164 52.0346 15.5673 52.2598 15.468 52.5453C15.3686 52.8308 15.3189 53.1571 15.3189 53.5224C15.3189 53.8877 15.3686 54.2122 15.468 54.4995C15.5673 54.785 15.7164 55.0102 15.9134 55.1751C16.1103 55.34 16.3552 55.4216 16.648 55.4216Z" fill="#442F91"/>
<path d="M20.3495 56.6469V50.3713H22.0086V51.4778H22.0832C22.2145 51.1107 22.4327 50.8199 22.7362 50.6071C23.0414 50.3944 23.4069 50.288 23.8328 50.288C24.2587 50.288 24.6295 50.3944 24.933 50.6089C25.2346 50.8235 25.4369 51.1125 25.538 51.4778H25.6037C25.7315 51.1178 25.9639 50.8306 26.3011 50.6142C26.6382 50.3979 27.0357 50.2897 27.4971 50.2897C28.0826 50.2897 28.56 50.4759 28.9255 50.8483C29.2928 51.2207 29.4756 51.7474 29.4756 52.4265V56.6469H27.7384V52.7705C27.7384 52.423 27.6461 52.1605 27.4598 51.9867C27.2752 51.813 27.0428 51.7261 26.7642 51.7261C26.4483 51.7261 26.2017 51.8254 26.0242 52.0258C25.8468 52.2261 25.7581 52.4904 25.7581 52.8166V56.6486H24.0706V52.7351C24.0706 52.4265 23.9818 52.1818 23.8062 51.9992C23.6305 51.8165 23.3998 51.7261 23.1124 51.7261C22.9189 51.7261 22.745 51.7739 22.5907 51.8715C22.4363 51.969 22.3138 52.1038 22.2251 52.2758C22.1346 52.4496 22.0903 52.6517 22.0903 52.8822V56.6486H20.3495V56.6469Z" fill="#442F91"/>
<path d="M32.1195 56.7657C31.7185 56.7657 31.3618 56.6965 31.0478 56.5547C30.7337 56.4146 30.487 56.2053 30.306 55.9287C30.125 55.6521 30.0345 55.3063 30.0345 54.8931C30.0345 54.5438 30.0984 54.2512 30.2262 54.0154C30.3539 53.7777 30.5296 53.588 30.7497 53.4444C30.9697 53.3007 31.2217 53.1908 31.5038 53.1181C31.7859 53.0436 32.0823 52.9922 32.3928 52.962C32.7583 52.9248 33.0529 52.8876 33.2765 52.8539C33.5001 52.8202 33.6615 52.7688 33.7627 52.7014C33.8638 52.634 33.9135 52.5329 33.9135 52.3981V52.3733C33.9135 52.1144 33.8319 51.914 33.6704 51.7722C33.5089 51.6303 33.2783 51.5594 32.9819 51.5594C32.6678 51.5594 32.4194 51.6285 32.2331 51.7651C32.0468 51.9016 31.9243 52.0754 31.8658 52.2811L30.2546 52.1499C30.3362 51.7686 30.4977 51.4388 30.7372 51.1586C30.9768 50.8802 31.2873 50.6639 31.6671 50.5132C32.0468 50.3624 32.4886 50.2862 32.989 50.2862C33.3386 50.2862 33.6722 50.327 33.9934 50.4085C34.3145 50.4901 34.5985 50.616 34.8487 50.788C35.0989 50.96 35.2941 51.1799 35.4396 51.4477C35.5833 51.7154 35.656 52.0364 35.656 52.4088V56.6416H34.004V55.7709H33.9543C33.8532 55.9677 33.7183 56.1397 33.5498 56.2887C33.3812 56.4376 33.1771 56.5529 32.9411 56.6362C32.7033 56.7196 32.4301 56.7604 32.1195 56.7604M32.6182 55.5652C32.8737 55.5652 33.1008 55.5138 33.296 55.4127C33.493 55.3098 33.6456 55.1733 33.7574 54.9977C33.8692 54.824 33.9259 54.6254 33.9259 54.4055V53.7405C33.8709 53.776 33.7964 53.8079 33.7024 53.8363C33.6083 53.8646 33.5036 53.8912 33.3847 53.9143C33.2676 53.9373 33.1505 53.9586 33.0334 53.9763C32.9163 53.9941 32.8098 54.01 32.714 54.0224C32.5099 54.0526 32.3307 54.1005 32.1781 54.1661C32.0255 54.2317 31.9066 54.3186 31.8232 54.4303C31.738 54.5402 31.6972 54.6768 31.6972 54.8399C31.6972 55.0775 31.7842 55.2566 31.9563 55.3808C32.1284 55.5049 32.3484 55.567 32.6164 55.567" fill="#442F91"/>
<path d="M38.2822 56.7657C37.8812 56.7657 37.5245 56.6965 37.2105 56.5547C36.8964 56.4146 36.6497 56.2053 36.4687 55.9287C36.2877 55.6521 36.1972 55.3063 36.1972 54.8931C36.1972 54.5438 36.2611 54.2512 36.3889 54.0154C36.5166 53.7777 36.6923 53.588 36.9123 53.4444C37.1324 53.3007 37.3843 53.1908 37.6665 53.1181C37.9486 53.0436 38.245 52.9922 38.5555 52.962C38.921 52.9248 39.2156 52.8876 39.4392 52.8539C39.6628 52.8202 39.8242 52.7688 39.9254 52.7014C40.0265 52.634 40.0762 52.5329 40.0762 52.3981V52.3733C40.0762 52.1144 39.9946 51.914 39.8331 51.7722C39.6716 51.6303 39.441 51.5594 39.1446 51.5594C38.8305 51.5594 38.5821 51.6285 38.3958 51.7651C38.2095 51.9016 38.087 52.0754 38.0285 52.2811L36.4173 52.1499C36.4989 51.7686 36.6604 51.4388 36.8999 51.1586C37.1395 50.8802 37.45 50.6639 37.8297 50.5132C38.2095 50.3624 38.6513 50.2862 39.1517 50.2862C39.5013 50.2862 39.8349 50.327 40.1561 50.4085C40.4772 50.4901 40.7611 50.616 41.0113 50.788C41.2615 50.96 41.4567 51.1799 41.6022 51.4477C41.746 51.7154 41.8187 52.0364 41.8187 52.4088V56.6416H40.1667V55.7709H40.117C40.0159 55.9677 39.881 56.1397 39.7124 56.2887C39.5439 56.4376 39.3398 56.5529 39.1038 56.6362C38.866 56.7196 38.5928 56.7604 38.2822 56.7604M38.7809 55.5652C39.0364 55.5652 39.2635 55.5138 39.4587 55.4127C39.6557 55.3098 39.8083 55.1733 39.9201 54.9977C40.0318 54.824 40.0886 54.6254 40.0886 54.4055V53.7405C40.0336 53.776 39.9591 53.8079 39.865 53.8363C39.771 53.8646 39.6663 53.8912 39.5474 53.9143C39.4303 53.9373 39.3132 53.9586 39.1961 53.9763C39.079 53.9941 38.9725 54.01 38.8767 54.0224C38.6726 54.0526 38.4934 54.1005 38.3408 54.1661C38.1882 54.2317 38.0693 54.3186 37.9859 54.4303C37.9007 54.5402 37.8599 54.6768 37.8599 54.8399C37.8599 55.0775 37.9469 55.2566 38.119 55.3808C38.2911 55.5049 38.5111 55.567 38.7791 55.567" fill="#442F91"/>
<path d="M44.3935 48.2806H42.6527V56.6469H44.3935V48.2806Z" fill="#442F91"/>
<path d="M46.1413 49.5645C45.8823 49.5645 45.6605 49.4793 45.4777 49.3073C45.2931 49.1353 45.2009 48.9279 45.2009 48.6867C45.2009 48.4455 45.2931 48.2363 45.4795 48.0643C45.664 47.8905 45.8858 47.8054 46.1413 47.8054C46.3969 47.8054 46.6222 47.8905 46.805 48.0625C46.9895 48.2345 47.0818 48.442 47.0818 48.6832C47.0818 48.9243 46.9895 49.1336 46.805 49.3056C46.6204 49.4793 46.3986 49.5645 46.1413 49.5645ZM45.2665 50.3731H47.0073V56.6487H45.2665V50.3731Z" fill="#442F91"/>
<path d="M48.9556 59C48.7356 59 48.528 58.9823 48.3363 58.9486C48.1447 58.9149 47.985 58.8723 47.8608 58.8191L48.2529 57.5193C48.457 57.5814 48.6415 57.6151 48.8066 57.6222C48.9716 57.6275 49.1153 57.5903 49.236 57.5087C49.3567 57.4271 49.456 57.2888 49.5323 57.092L49.6352 56.826L47.3835 50.3713H49.2147L50.5154 54.98H50.581L51.8941 50.3713H53.7378L51.2979 57.3243C51.1808 57.6612 51.0229 57.9573 50.8224 58.2091C50.6218 58.4609 50.3699 58.656 50.0647 58.7925C49.7595 58.9308 49.3921 58.9982 48.961 58.9982" fill="#442F91"/>
<path d="M56.7597 56.771C56.1138 56.771 55.5584 56.6398 55.0935 56.3773C54.6286 56.1149 54.2701 55.7407 54.0199 55.2584C53.7697 54.7743 53.6438 54.2015 53.6438 53.5401C53.6438 52.8787 53.7697 52.329 54.0199 51.8413C54.2701 51.3537 54.625 50.9742 55.0811 50.7011C55.5371 50.428 56.073 50.2933 56.6905 50.2933C57.104 50.2933 57.4908 50.3589 57.8492 50.4919C58.2077 50.6231 58.5217 50.8217 58.7897 51.0859C59.0576 51.3501 59.267 51.6817 59.4179 52.0807C59.5669 52.4797 59.6432 52.9461 59.6432 53.4798V53.9586H54.3411V52.8805H58.0036C58.0036 52.6304 57.9486 52.407 57.8404 52.2137C57.7321 52.0204 57.5813 51.8679 57.3879 51.758C57.1962 51.6481 56.9726 51.5931 56.7189 51.5931C56.4652 51.5931 56.2203 51.6534 56.018 51.774C55.8157 51.8945 55.656 52.0577 55.5424 52.2598C55.4289 52.462 55.3685 52.6872 55.3668 52.9354V53.9604C55.3668 54.2707 55.4253 54.5385 55.5407 54.7654C55.656 54.9924 55.821 55.1662 56.034 55.2886C56.2469 55.4109 56.4989 55.473 56.7899 55.473C56.9833 55.473 57.1607 55.4464 57.3204 55.3914C57.4801 55.3364 57.6185 55.2549 57.7339 55.1467C57.8492 55.0385 57.9362 54.9038 57.9947 54.7459L59.6059 54.8523C59.5243 55.2389 59.3575 55.5758 59.1055 55.8631C58.8536 56.1504 58.5288 56.3738 58.1331 56.5334C57.7374 56.693 57.2796 56.7728 56.7615 56.7728" fill="#442F91"/>
<path d="M63.1229 56.771C62.477 56.771 61.9216 56.6398 61.4567 56.3773C60.9918 56.1149 60.6334 55.7407 60.3832 55.2584C60.133 54.7743 60.007 54.2015 60.007 53.5401C60.007 52.8787 60.133 52.329 60.3832 51.8413C60.6334 51.3537 60.9882 50.9742 61.4443 50.7011C61.9003 50.428 62.4362 50.2933 63.0537 50.2933C63.4672 50.2933 63.854 50.3589 64.2124 50.4919C64.5709 50.6231 64.885 50.8217 65.1529 51.0859C65.4209 51.3501 65.6302 51.6817 65.7811 52.0807C65.9301 52.4797 66.0064 52.9461 66.0064 53.4798V53.9586H60.7043V52.8805H64.3668C64.3668 52.6304 64.3118 52.407 64.2036 52.2137C64.0953 52.0204 63.9445 51.8679 63.7511 51.758C63.5594 51.6481 63.3359 51.5931 63.0821 51.5931C62.8284 51.5931 62.5835 51.6534 62.3812 51.774C62.1789 51.8945 62.0192 52.0577 61.9056 52.2598C61.7921 52.462 61.7317 52.6872 61.73 52.9354V53.9604C61.73 54.2707 61.7885 54.5385 61.9039 54.7654C62.0192 54.9924 62.1842 55.1662 62.3972 55.2886C62.6101 55.4109 62.8621 55.473 63.1531 55.473C63.3465 55.473 63.524 55.4464 63.6837 55.3914C63.8434 55.3364 63.9818 55.2549 64.0971 55.1467C64.2124 55.0385 64.2994 54.9038 64.358 54.7459L65.9692 54.8523C65.8875 55.2389 65.7207 55.5758 65.4688 55.8631C65.2168 56.1504 64.8921 56.3738 64.4964 56.5334C64.1007 56.693 63.6428 56.7728 63.1247 56.7728" fill="#442F91"/>
<path d="M68.9378 56.7497C68.4605 56.7497 68.0293 56.6274 67.6442 56.3809C67.2592 56.1344 66.954 55.7709 66.7286 55.2903C66.5033 54.8098 66.3915 54.2193 66.3915 53.5188C66.3915 52.8184 66.5068 52.2013 66.7393 51.7243C66.9717 51.2455 67.2787 50.8873 67.6655 50.6497C68.0506 50.4121 68.4747 50.2915 68.9343 50.2915C69.2856 50.2915 69.5802 50.35 69.8162 50.4688C70.0522 50.5876 70.2421 50.7348 70.3876 50.9104C70.5331 51.0859 70.6449 51.2579 70.7212 51.4264H70.7744V48.2806H72.5116V56.6469H70.7939V55.6414H70.7212C70.6395 55.8152 70.5242 55.9872 70.3751 56.1575C70.2261 56.3277 70.0345 56.4678 69.7984 56.5813C69.5624 56.693 69.275 56.748 68.9378 56.748M69.4897 55.3648C69.7701 55.3648 70.0078 55.2886 70.203 55.1343C70.3982 54.98 70.5473 54.7654 70.652 54.487C70.7567 54.2086 70.8099 53.8841 70.8099 53.51C70.8099 53.1358 70.7584 52.8131 70.6537 52.5382C70.5508 52.2634 70.4 52.0506 70.2048 51.9016C70.0078 51.7527 69.7701 51.6764 69.4897 51.6764C69.2093 51.6764 68.9627 51.7544 68.7657 51.9087C68.5687 52.0648 68.4215 52.2793 68.3203 52.5542C68.2192 52.829 68.1695 53.1482 68.1695 53.51C68.1695 53.8717 68.221 54.1962 68.3221 54.4764C68.425 54.7548 68.5723 54.9729 68.7675 55.1307C68.9627 55.2868 69.2022 55.3648 69.4897 55.3648Z" fill="#442F91"/>
<path d="M75.3472 26.7266C75.3472 26.7266 88.9023 27.0635 95.6186 27.232C95.7233 27.2338 95.8032 27.3189 95.8014 27.4235C95.8014 27.4661 95.8014 27.5104 95.8014 27.553C95.8014 27.6576 95.7198 27.7427 95.6169 27.7445L75.3844 28.2498C74.9657 28.2605 74.6143 27.9253 74.6037 27.5069C74.593 27.0884 74.9284 26.7373 75.3472 26.7266Z" fill="#50C8EF"/>
<path d="M96.0694 29.5018C96.0836 29.555 96.0995 29.6099 96.1137 29.6631C96.1492 29.7784 96.0658 29.8972 95.9452 29.9043L80.7983 30.9204C80.3796 30.9505 80.0176 30.6313 79.9856 30.2111C79.9555 29.7731 80.3104 29.3954 80.7487 29.3989L95.8848 29.3581C95.9718 29.3581 96.0463 29.4167 96.0694 29.5018Z" fill="#442F91"/>
<path d="M96.9761 31.5658C97.0098 31.6208 97.0453 31.674 97.0808 31.729C97.1589 31.846 97.0879 32.0021 96.9495 32.0216L86.434 33.4313C85.435 33.5377 85.2327 32.0783 86.2317 31.9187C86.2619 31.9116 93.0244 31.635 96.8093 31.4772C96.8767 31.4754 96.9388 31.5073 96.9761 31.5658Z" fill="#5064AE"/>
<path d="M82.5 24.1128L95.9505 25.0597C96.0711 25.0686 96.1528 25.1856 96.119 25.3009C96.1013 25.3612 96.0836 25.4233 96.0676 25.4853C96.0463 25.5704 95.9718 25.6307 95.8848 25.6307L82.4468 25.6378C81.4105 25.6077 81.4549 24.072 82.5 24.1146" fill="#442F91"/>
<path d="M87.6762 21.6551C87.7471 21.6551 93.5727 22.4726 96.9566 22.946C97.095 22.9655 97.1642 23.1233 97.0861 23.2386C97.0453 23.2989 97.0063 23.361 96.9672 23.423C96.9317 23.4798 96.8679 23.5135 96.8004 23.5117L87.6229 23.1801C86.6203 23.1198 86.6665 21.6444 87.6762 21.6569" fill="#5064AE"/>
<path d="M101.045 34.7719C101.088 34.7861 101.13 34.8003 101.173 34.8127C101.27 34.8428 101.325 34.9492 101.297 35.0468L95.5299 54.4303C95.4075 54.8346 94.9852 55.0634 94.5806 54.9445C94.176 54.8222 93.9471 54.4002 94.066 53.9959C94.0624 53.9959 98.5749 41.223 100.809 34.8872C100.843 34.7914 100.947 34.7382 101.045 34.7719Z" fill="#50C8EF"/>
<path d="M103.107 35.1567C103.164 35.1585 103.224 35.1603 103.281 35.162C103.401 35.1656 103.488 35.2808 103.458 35.3979L99.7478 50.084C99.6573 50.444 99.3273 50.7082 98.9564 50.6834C98.4489 50.6479 98.1277 50.1479 98.2786 49.6904L102.919 35.2862C102.945 35.2046 103.022 35.1514 103.107 35.1549" fill="#442F91"/>
<path d="M105.543 34.8889C105.678 34.8517 105.804 34.967 105.779 35.1053L103.872 45.5321C103.669 46.5145 102.213 46.2556 102.369 45.2572C102.372 45.2235 104.2 38.7086 105.22 35.0663C105.238 34.9989 105.293 34.951 105.36 34.9351C105.421 34.9209 105.481 34.9049 105.541 34.8889" fill="#5064AE"/>
<path d="M99.1339 33.8143C99.1853 33.8498 99.2386 33.8853 99.29 33.919C99.361 33.9651 99.3929 34.0537 99.3663 34.1353L95.2212 46.9134C94.8893 47.8586 93.4822 47.4082 93.7732 46.4418C93.7732 46.4187 97.0027 38.4567 98.85 33.8959C98.8961 33.7824 99.0345 33.7452 99.1356 33.8143" fill="#442F91"/>
<path d="M97.4623 32.2521C97.5067 32.3088 97.5546 32.3656 97.6025 32.4206C97.6469 32.472 97.6628 32.5447 97.638 32.6103L94.4848 41.2337C94.1157 42.1664 92.7263 41.6681 93.0475 40.7123C93.0616 40.6645 95.6453 35.3606 97.1447 32.2876C97.205 32.1617 97.3754 32.1439 97.4623 32.2539" fill="#5064AE"/>
<path d="M109.742 31.9453C109.802 31.862 109.917 31.8407 110.002 31.8992L126.668 43.3793C127.014 43.6152 127.103 44.0922 126.862 44.438C126.622 44.7855 126.148 44.8724 125.802 44.633C125.795 44.633 115.029 36.3962 109.695 32.3159C109.612 32.2521 109.6 32.1351 109.662 32.0517C109.688 32.0163 109.713 31.9808 109.74 31.9471" fill="#50C8EF"/>
<path d="M110.728 30.0604C110.767 29.9469 110.904 29.899 111.007 29.9628L123.859 38.0329C124.218 38.2581 124.324 38.7298 124.099 39.0845C123.866 39.4586 123.359 39.5562 123.004 39.2973L110.733 30.4381C110.663 30.3866 110.638 30.2944 110.67 30.2146C110.689 30.1632 110.709 30.1118 110.726 30.0604" fill="#442F91"/>
<path d="M111.166 27.8207C111.172 27.6806 111.323 27.5955 111.445 27.6611L120.779 32.6954C121.648 33.1937 120.954 34.4971 120.055 34.0396C120.021 34.0236 114.385 30.2767 111.236 28.1807C111.179 28.1435 111.149 28.0778 111.154 28.0105C111.159 27.9484 111.163 27.8846 111.165 27.8207" fill="#5064AE"/>
<path d="M108.311 33.4615C108.379 33.4083 108.471 33.4047 108.54 33.4544L119.418 41.3436C120.218 41.9412 119.349 43.1523 118.522 42.5778C118.515 42.5778 111.926 37.0452 108.152 33.8729C108.058 33.7948 108.065 33.6512 108.162 33.5767C108.212 33.5395 108.262 33.5005 108.311 33.4597" fill="#442F91"/>
<path d="M106.367 34.6088C106.43 34.5839 106.501 34.5928 106.555 34.6336L113.787 40.2921C114.565 40.9198 113.651 42.0973 112.845 41.4926C112.801 41.4624 108.562 37.3751 106.095 35.0024C105.994 34.9049 106.029 34.7382 106.161 34.6886C106.23 34.6637 106.297 34.6371 106.365 34.6088" fill="#5064AE"/>
<path d="M126.84 10.5084C127.096 10.8435 127.035 11.3205 126.698 11.5759C126.698 11.5829 115.533 19.2629 110.001 23.079C109.915 23.1375 109.802 23.1163 109.74 23.0311C109.715 22.9957 109.688 22.9602 109.662 22.9265C109.6 22.8432 109.614 22.7244 109.697 22.6605L125.772 10.3665C126.104 10.1111 126.585 10.1714 126.84 10.5066" fill="#50C8EF"/>
<path d="M120.894 11.4783C121.176 11.817 121.116 12.3277 120.761 12.5831L108.533 21.5114C108.464 21.5629 108.37 21.5593 108.304 21.5044C108.26 21.4689 108.216 21.4352 108.171 21.3997C108.074 21.3253 108.068 21.1816 108.162 21.1036L119.819 11.3826C120.143 11.113 120.623 11.1574 120.894 11.4783Z" fill="#442F91"/>
<path d="M114.843 13.7694C114.82 13.796 109.507 17.9915 106.542 20.3375C106.489 20.3801 106.418 20.389 106.354 20.3624C106.294 20.3375 106.235 20.3145 106.175 20.2914C106.044 20.2418 106.01 20.0733 106.111 19.9776L113.789 12.6646C114.526 11.9855 115.558 13.0601 114.845 13.7694" fill="#5064AE"/>
<path d="M122.495 17.8603C122.495 17.8603 115.191 22.4194 111.009 25.0261C110.904 25.0917 110.771 25.0402 110.73 24.925C110.709 24.8647 110.687 24.8062 110.664 24.7459C110.634 24.6661 110.659 24.5756 110.728 24.526L121.597 16.6261C122.413 16.0516 123.297 17.2538 122.493 17.8603" fill="#442F91"/>
<path d="M119.709 22.9194C119.668 22.9531 114.465 25.7194 111.443 27.3277C111.321 27.3934 111.172 27.3082 111.166 27.1699C111.163 27.0955 111.158 27.0227 111.152 26.95C111.147 26.8827 111.179 26.817 111.234 26.778L118.855 21.6551C119.698 21.1107 120.532 22.3449 119.709 22.9194Z" fill="#5064AE"/>
<path d="M95.5139 0.510696C95.5139 0.510696 99.3823 13.491 101.3 19.9315C101.331 20.0325 101.27 20.1336 101.171 20.1655C101.13 20.178 101.089 20.1904 101.048 20.2046C100.949 20.2365 100.843 20.1868 100.809 20.0893L94.0784 1.01962C93.9382 0.618865 94.1476 0.186189 94.5433 0.044328C94.939 -0.0922133 95.3791 0.113485 95.5157 0.512469" fill="#50C8EF"/>
<path d="M94.6427 6.46532L99.3592 20.8447C99.3858 20.9263 99.3539 21.0149 99.2811 21.0628C99.235 21.093 99.1888 21.1231 99.1445 21.1533C99.0433 21.2224 98.9049 21.1834 98.8588 21.0699L93.2107 6.98665C93.0545 6.59831 93.2444 6.15322 93.633 5.9954C94.0411 5.83226 94.506 6.0486 94.6427 6.46354" fill="#442F91"/>
<path d="M93.9365 12.4536C93.956 12.4838 96.3107 18.8338 97.6273 22.3786C97.6504 22.4424 97.6362 22.5116 97.5936 22.5648C97.5528 22.6144 97.5102 22.6623 97.4712 22.7137C97.3842 22.8219 97.2139 22.8059 97.1536 22.68L92.5612 13.1168C92.1496 12.2018 93.4804 11.5581 93.9382 12.4536" fill="#5064AE"/>
<path d="M100.211 6.49901L103.467 19.5768C103.495 19.6939 103.41 19.8091 103.288 19.8127C103.224 19.8127 103.157 19.8162 103.094 19.8198C103.009 19.8233 102.933 19.7701 102.908 19.6885L98.7488 6.91927C98.6193 6.51851 98.8357 6.08938 99.2368 5.95993C99.6555 5.81985 100.11 6.06988 100.213 6.50078" fill="#442F91"/>
<path d="M104.154 10.6609C104.168 10.7087 105.195 16.5073 105.79 19.8765C105.815 20.013 105.687 20.1283 105.554 20.0911C105.485 20.0716 105.417 20.0556 105.348 20.0396C105.281 20.0237 105.227 19.974 105.208 19.9084L102.688 11.0829C102.433 10.1111 103.856 9.69974 104.156 10.6644" fill="#5064AE"/>
<path d="M99.8064 26.8862H98.9387L99.3982 25.152H100.032L99.8064 26.8862Z" fill="#442F91"/>
<path d="M100.548 29.0301L102.15 27.5335C102.734 26.9873 102.857 26.7639 102.857 26.45V26.4429C102.853 26.0723 102.571 25.8098 102.168 25.8098C101.703 25.8098 101.389 26.1148 101.377 26.5227L101.373 26.5511H100.493V26.5262C100.493 25.6733 101.203 25.0739 102.161 25.0739C103.119 25.0739 103.778 25.6201 103.778 26.3915V26.3986C103.778 26.9483 103.517 27.3065 102.734 28.0246L101.785 28.8918V28.929H103.84V29.6826H100.545V29.0336L100.548 29.0301Z" fill="#442F91"/>
<path d="M106.509 28.8492H104.253V28.0583L106.072 25.152H107.41V28.092H108.006V28.8492H107.41V29.6809H106.509V28.8492ZM106.526 28.1169V25.8347H106.505L105.078 28.092V28.1169H106.526Z" fill="#442F91"/>
</g>
<defs>
<clipPath id="clip0_1_26">
<rect width="127" height="59" fill="white"/>
</clipPath>
</defs>
</svg>
