<svg width="133" height="48" viewBox="0 0 133 48" fill="none" xmlns="http://www.w3.org/2000/svg">
<path d="M38.2772 19.827C38.4594 19.7742 38.5895 19.7214 38.725 19.7006C39.2331 19.6228 39.744 19.5589 40.2534 19.4853C40.5616 19.4408 40.8697 19.3881 41.1765 19.3394C41.208 19.3339 41.2368 19.3228 41.2683 19.32C41.6476 19.2964 41.775 19.2089 41.9215 19.7492C42.268 21.0328 42.5447 22.3302 42.7871 23.636C42.8761 24.1153 42.9323 24.6056 42.9254 25.1002C42.9213 25.4002 42.9569 25.6989 42.9733 25.9989C42.9761 26.0462 42.9857 26.0962 42.9747 26.1406C42.8912 26.4851 42.9309 26.8352 42.9227 27.1825C42.909 27.8326 42.8268 28.4744 42.746 29.1189C42.5652 30.5539 42.2311 31.95 41.7613 33.3127C41.3436 34.524 40.8355 35.6964 40.2082 36.8175C39.7522 37.6315 39.2592 38.4191 38.7086 39.1707C38.4114 39.5777 38.0937 39.9694 37.7801 40.3639C37.3487 40.9085 36.8652 41.4044 36.3708 41.8892C35.5956 42.6504 34.7684 43.3492 33.8892 43.9854C32.4717 45.0119 30.9529 45.8454 29.3341 46.4997C28.0248 47.029 26.6758 47.4137 25.294 47.6777C24.6982 47.7916 24.0915 47.8527 23.4862 47.9194C22.4248 48.0375 21.3634 47.9916 20.302 47.9889C19.7556 47.9875 19.2173 47.8847 18.675 47.8263C17.8026 47.7319 16.9521 47.5443 16.1044 47.329C14.9978 47.047 13.9268 46.6553 12.8791 46.1955C12.1176 45.8607 11.3822 45.4801 10.6673 45.0564C9.8716 44.5841 9.1115 44.0548 8.38154 43.4839C7.83646 43.0588 7.32699 42.5921 6.81889 42.1212C5.63561 41.0238 4.61668 39.7846 3.72374 38.4455C3.0239 37.3967 2.39392 36.3021 1.90773 35.1269C1.62287 34.4407 1.33937 33.7544 1.11203 33.0474C0.791556 32.0541 0.532713 31.0442 0.36289 30.0121C0.204024 29.0439 0.0821348 28.0743 0.0588527 27.0894C0.0492659 26.6963 -0.0329064 26.2962 0.0150274 25.9059C0.0999388 25.2141 0.0725481 24.5167 0.15609 23.8235C0.286196 22.7372 0.476562 21.6648 0.754578 20.6105C1.05725 19.4617 1.45167 18.3462 1.94197 17.2627C2.41172 16.2236 2.95406 15.2262 3.57172 14.2719C4.08667 13.4773 4.65229 12.7216 5.26721 12.0007C5.77942 11.3992 6.32586 10.8338 6.89148 10.2879C7.52558 9.67665 8.19254 9.10155 8.91292 8.59729C9.47854 8.20139 10.0469 7.80965 10.629 7.44154C11.6123 6.81921 12.6572 6.32051 13.7351 5.89127C14.7677 5.48008 15.8195 5.13141 16.9055 4.89387C17.5602 4.7494 18.2189 4.63271 18.8845 4.53686C20.5006 4.3021 22.1249 4.32294 23.7478 4.37573C24.3052 4.39378 24.8598 4.51742 25.4145 4.59521C25.5692 4.61604 25.724 4.63966 25.876 4.67161C25.9349 4.68411 25.987 4.7244 26.0609 4.76051C26.0568 4.83831 26.0582 4.91471 26.0486 4.98833C25.9541 5.67734 25.8569 6.36496 25.7624 7.05397C25.7213 7.35124 25.6925 7.65129 25.6459 7.94718C25.6172 8.12915 25.5432 8.17361 25.3446 8.14582C24.1956 7.9833 23.0397 8.0083 21.8838 8.00691C21.1949 8.00691 20.5115 8.07637 19.8281 8.13193C19.2091 8.18194 18.5914 8.29724 17.982 8.42782C17.2342 8.58757 16.4961 8.78482 15.7743 9.04598C14.7129 9.42938 13.6926 9.89613 12.7093 10.4573C11.6972 11.0352 10.7454 11.7006 9.87434 12.4702C8.84992 13.3773 7.89398 14.3594 7.08459 15.4777C6.46418 16.3347 5.9013 17.228 5.42744 18.1767C4.66187 19.7117 4.12227 21.3287 3.81413 23.0192C3.68128 23.7485 3.58404 24.4875 3.57994 25.2349C3.57994 25.5183 3.50872 25.8031 3.52242 26.0851C3.57857 27.2214 3.62924 28.3563 3.83604 29.4815C4.0716 30.765 4.4359 32.0055 4.92893 33.2043C5.37403 34.2879 5.92733 35.3172 6.57786 36.2924C7.38862 37.5065 8.32128 38.6108 9.39089 39.593C10.3071 40.4334 11.3055 41.1668 12.3737 41.8044C13.5091 42.4823 14.7088 43.0144 15.9592 43.4256C16.8206 43.7089 17.704 43.8979 18.5969 44.0548C20.0089 44.3035 21.4305 44.291 22.8493 44.2146C23.9861 44.1521 25.1063 43.9229 26.2061 43.6159C27.2634 43.3214 28.2782 42.9144 29.2629 42.4309C30.1504 41.9961 30.9899 41.4752 31.7883 40.889C32.4594 40.3959 33.088 39.8541 33.692 39.2762C35.067 37.9579 36.1914 36.4549 37.1008 34.7754C37.943 33.221 38.5114 31.5679 38.8949 29.8468C39.0085 29.3398 39.0428 28.8147 39.1304 28.3007C39.2263 27.7353 39.2235 27.1658 39.2345 26.5949C39.2372 26.4851 39.2619 26.3754 39.2715 26.2656C39.2797 26.1712 39.303 26.0712 39.2838 25.9823C39.2112 25.6683 39.2359 25.3516 39.2263 25.0349C39.2016 24.2736 39.0975 23.5235 38.9757 22.7734C38.8278 21.8663 38.6018 20.9786 38.3416 20.0993C38.3197 20.0257 38.3073 19.9493 38.2786 19.8215L38.2772 19.827Z" fill="#45AD4D"/>
<path d="M17.578 14.0802C17.6095 14.5344 17.589 14.9929 17.5931 15.4513C17.5972 15.9111 17.5931 16.3709 17.5931 16.8307V23.7999C17.7218 23.8208 17.8245 23.8527 17.9272 23.8527C18.7407 23.8569 19.5543 23.8555 20.3664 23.8555C21.6483 23.8555 22.9315 23.8555 24.2134 23.8555C24.3682 23.8555 24.5216 23.8472 24.6599 23.843C24.7927 23.6805 24.7448 23.5152 24.7448 23.3624C24.7489 21.8871 24.7462 20.4118 24.7475 18.9366C24.7475 18.7643 24.7544 18.5907 24.7585 18.3934C24.8681 18.3532 24.9639 18.2934 25.0639 18.2851C25.2502 18.2684 25.4392 18.2754 25.6268 18.2809C25.8185 18.2865 25.9514 18.3809 26.0089 18.5712C26.1102 18.9074 26.2705 19.2158 26.4773 19.4978C27.0552 20.284 27.8359 20.6841 28.7973 20.7411C29.5272 20.7841 30.1915 20.6035 30.7831 20.166C30.9214 20.0632 31.0433 19.9409 31.1748 19.827C31.2556 19.7576 31.3378 19.6881 31.4446 19.5978C31.487 19.6728 31.5322 19.7201 31.5377 19.7728C31.5514 19.8979 31.55 20.0257 31.55 20.1521C31.55 25.942 31.55 31.7319 31.55 37.5218C31.55 37.6482 31.55 37.776 31.5405 37.9024C31.5336 38.0038 31.4583 38.0802 31.3597 38.0885C31.2501 38.0969 31.1406 38.0983 31.031 38.0983C29.1068 38.0983 27.184 38.0983 25.2598 38.0983C25.1201 38.0983 24.9817 38.0871 24.8229 38.0816C24.7955 37.9802 24.7599 37.8941 24.753 37.8051C24.7421 37.6635 24.7489 37.5204 24.7489 37.3773C24.7489 34.5379 24.7489 31.6985 24.7489 28.8591C24.7489 28.6869 24.7407 28.516 24.7352 28.3188C24.1244 28.2577 23.5341 28.2979 22.9452 28.291C22.3509 28.284 21.7565 28.2896 21.1621 28.2896C20.5677 28.2896 20.0048 28.2896 19.4255 28.2896C18.8339 28.2896 18.2409 28.2868 17.6451 28.2924C17.5657 28.4883 17.5958 28.6647 17.5958 28.8341C17.5931 31.7055 17.5958 34.5768 17.5931 37.4481C17.5931 37.6371 17.615 37.8274 17.5561 38.0357C17.4712 38.0566 17.3849 38.0857 17.2959 38.0983C17.2192 38.1094 17.1398 38.101 17.0617 38.101C15.1539 38.101 13.2462 38.101 11.3384 38.101C11.185 38.101 11.0248 38.1316 10.8536 38.0427C10.8371 37.9691 10.807 37.8815 10.7988 37.7913C10.7878 37.6815 10.7947 37.569 10.7947 37.4579C10.7947 29.876 10.7947 22.2927 10.7947 14.7109C10.7947 14.5844 10.7906 14.4566 10.7974 14.3302C10.8098 14.0746 10.8823 14.0066 11.148 13.9927C11.2261 13.9885 11.3042 13.9927 11.3822 13.9927C13.2749 13.9927 15.1663 13.9927 17.059 13.9941C17.2123 13.9941 17.3726 13.9607 17.5794 14.0844L17.578 14.0802Z" fill="#45AD4D"/>
<path d="M29.0931 3.32833C29.0931 3.16302 29.0807 3.05189 29.0944 2.94354C29.215 2.06699 29.3396 1.19184 29.4629 0.315301C29.467 0.283351 29.4697 0.252791 29.4765 0.220841C29.519 0.0194167 29.6272 -0.0444833 29.8148 0.0305297C30.0038 0.105543 30.1901 0.186112 30.3763 0.26946C31.046 0.57368 31.7281 0.852895 32.38 1.19045C33.1442 1.58636 33.8919 2.0156 34.6233 2.47401C35.5833 3.07411 36.4913 3.74506 37.3733 4.45074C38.4922 5.34534 39.5194 6.34552 40.4822 7.4082C40.9889 7.96663 41.4545 8.56534 41.9215 9.1585C42.6515 10.0892 43.313 11.0699 43.9115 12.0923C44.4935 13.087 45.0674 14.0857 45.5097 15.1554C45.607 15.3888 45.7275 15.6124 45.8288 15.843C45.8658 15.9263 45.8795 16.0194 45.9055 16.1167C45.7289 16.2347 45.5453 16.2611 45.3618 16.2875C44.7442 16.3764 44.1279 16.4667 43.5102 16.5556C43.2788 16.589 43.0473 16.6223 42.8159 16.6543C42.6967 16.6709 42.5981 16.6251 42.5351 16.5223C42.4789 16.4278 42.4338 16.325 42.3858 16.2264C42.1489 15.7458 41.9243 15.2568 41.6695 14.7845C41.3861 14.2566 41.0793 13.7412 40.7766 13.2231C40.2507 12.3202 39.6125 11.4992 38.9757 10.6768C38.7921 10.4407 38.599 10.2115 38.3991 9.9892C38.0307 9.57941 37.665 9.16545 37.2788 8.77372C36.9145 8.40421 36.5338 8.04998 36.1421 7.70964C35.6093 7.24567 35.0656 6.7942 34.4918 6.38024C33.6769 5.79125 32.8525 5.22032 31.965 4.74663C31.5911 4.54798 31.2282 4.32989 30.8488 4.14374C30.3996 3.92287 29.9381 3.72978 29.482 3.52141C29.356 3.46307 29.2328 3.39639 29.089 3.32416L29.0931 3.32833Z" fill="#45AD4D"/>
<path d="M41.1628 16.8473C41.0423 16.896 40.9752 16.9362 40.904 16.9487C40.1192 17.0752 39.3345 17.1974 38.5484 17.3196C38.4867 17.3294 38.4251 17.3363 38.3621 17.3405C38.0649 17.3641 38.006 17.3377 37.8855 17.0696C37.4637 16.1305 36.9556 15.2401 36.3954 14.3816C35.9914 13.7621 35.5532 13.1648 35.0821 12.591C34.7013 12.1271 34.2836 11.7006 33.8714 11.2672C32.9237 10.2684 31.8486 9.43077 30.7023 8.68203C30.1627 8.32919 29.6039 8.01525 29.0273 7.73048C28.8602 7.64852 28.6973 7.55684 28.5521 7.47905C28.4357 7.10676 28.5836 6.78726 28.611 6.46081C28.6384 6.1302 28.6795 5.79959 28.7493 5.47592C28.8178 5.15642 28.7534 4.80636 28.9671 4.49242C29.0479 4.51603 29.1383 4.52992 29.2177 4.56882C30.6174 5.24255 31.9513 6.0274 33.2154 6.94006C34.7123 8.02081 36.0627 9.26686 37.287 10.6463C38.1964 11.6714 39.0058 12.7772 39.7111 13.9621C40.1398 14.6817 40.5315 15.4207 40.8834 16.1806C40.9752 16.3806 41.0546 16.5862 41.1628 16.846V16.8473Z" fill="#45AD4D"/>
<path d="M34.133 17.9795C33.9741 17.6433 33.8276 17.3294 33.6769 17.0182C33.2551 16.1431 32.6854 15.3721 32.0376 14.6581C31.3583 13.9079 30.5996 13.2481 29.7737 12.6744C29.2602 12.3174 28.7069 12.0173 28.1727 11.6909C28.081 11.6353 27.9947 11.5714 27.8893 11.4978C27.9659 10.9422 28.0399 10.3976 28.1152 9.85168C28.1536 9.56969 28.1892 9.2877 28.2357 9.00709C28.2577 8.87235 28.3563 8.81956 28.4754 8.86818C28.5905 8.9168 28.7028 8.97236 28.8151 9.02793C29.9381 9.5933 30.9817 10.2823 31.9499 11.0908C32.4799 11.5339 33.0072 11.9826 33.4811 12.4883C34.3644 13.4329 35.1451 14.458 35.8066 15.5763C36.1202 16.1069 36.3996 16.6543 36.6283 17.228C36.6461 17.2724 36.6666 17.3155 36.6831 17.3599C36.731 17.4919 36.6885 17.585 36.5625 17.6128C36.4406 17.6391 36.3174 17.6586 36.1941 17.6794C35.5641 17.7864 34.9342 17.8947 34.3042 17.9989C34.2603 18.0059 34.2124 17.9892 34.133 17.9795Z" fill="#1BACE4"/>
<path d="M31.2775 16.6445C31.2734 17.7475 30.4489 18.7449 29.2013 18.7616C28.0673 18.7768 27.1127 17.7933 27.1196 16.6431C27.1251 15.5082 28.0796 14.533 29.2273 14.5497C30.2983 14.565 31.2528 15.4096 31.2775 16.6445Z" fill="#1BACE4"/>
<path d="M52.7697 33.0099H50.2689V32.0083H56.3236V33.0099H53.8228V39.8861H52.7697V33.0099Z" fill="#1BACE4"/>
<path d="M62.7084 32.0083H67.7209V33.0099H63.7616V35.3575H67.447V36.3591H63.7616V38.8845H67.9195V39.8861H62.7084V32.0083Z" fill="#1BACE4"/>
<path d="M74.6754 32.0083H75.7286V38.8845H79.2935V39.8861H74.6754V32.0083Z" fill="#1BACE4"/>
<path d="M85.6345 32.0083H90.647V33.0099H86.6877V35.3575H90.3731V36.3591H86.6877V38.8845H90.8456V39.8861H85.6345V32.0083Z" fill="#1BACE4"/>
<path d="M103.01 33.71C102.791 33.4211 102.513 33.1988 102.176 33.0418C101.839 32.8862 101.492 32.8084 101.134 32.8084C100.695 32.8084 100.298 32.8918 99.9434 33.0585C99.5887 33.2252 99.2847 33.453 99.0327 33.7433C98.7807 34.0323 98.5848 34.3726 98.4452 34.7616C98.3055 35.1505 98.237 35.5686 98.237 36.0132C98.237 36.4285 98.3027 36.8216 98.4342 37.1925C98.5657 37.5634 98.756 37.8899 99.0039 38.1719C99.2532 38.4539 99.5558 38.6761 99.9147 38.84C100.273 39.004 100.679 39.0845 101.132 39.0845C101.586 39.0845 101.969 38.9915 102.306 38.8067C102.643 38.622 102.928 38.3622 103.162 38.0274L104.051 38.7067C103.992 38.7887 103.89 38.9053 103.744 39.0568C103.597 39.2096 103.404 39.361 103.163 39.5124C102.922 39.6638 102.632 39.7985 102.291 39.9125C101.95 40.0264 101.558 40.0847 101.112 40.0847C100.497 40.0847 99.9434 39.9666 99.449 39.7291C98.956 39.4915 98.5355 39.1804 98.1877 38.7942C97.8398 38.408 97.5755 37.9732 97.392 37.487C97.2098 37.0008 97.1181 36.5105 97.1181 36.0132C97.1181 35.4047 97.2167 34.8435 97.4139 34.3268C97.6111 33.8114 97.8878 33.3669 98.2425 32.9918C98.5972 32.6167 99.0231 32.3264 99.5202 32.118C100.017 31.9111 100.567 31.8069 101.165 31.8069C101.677 31.8069 102.18 31.9069 102.673 32.1069C103.166 32.307 103.57 32.6154 103.885 33.0307L103.007 33.71H103.01Z" fill="#1BACE4"/>
<path d="M114.155 40.0861C113.563 40.0861 113.018 39.9805 112.521 39.7694C112.024 39.5582 111.598 39.2665 111.243 38.8956C110.889 38.5247 110.611 38.0871 110.409 37.5829C110.208 37.0786 110.108 36.5327 110.108 35.9479C110.108 35.3631 110.208 34.8171 110.409 34.3115C110.611 33.8072 110.889 33.3697 111.243 32.9988C111.598 32.6279 112.024 32.3361 112.521 32.125C113.018 31.9138 113.563 31.8083 114.155 31.8083C114.747 31.8083 115.292 31.9138 115.79 32.125C116.288 32.3361 116.713 32.6279 117.068 32.9988C117.423 33.3697 117.701 33.8072 117.902 34.3115C118.104 34.8157 118.203 35.3617 118.203 35.9479C118.203 36.5341 118.102 37.0786 117.902 37.5829C117.701 38.0871 117.423 38.5247 117.068 38.8956C116.713 39.2665 116.288 39.5568 115.79 39.7694C115.293 39.9805 114.748 40.0861 114.155 40.0861ZM114.155 39.0845C114.602 39.0845 115.003 39.0012 115.362 38.8345C115.721 38.6678 116.027 38.4441 116.283 38.1608C116.539 37.8788 116.737 37.5468 116.876 37.1648C117.015 36.7827 117.085 36.3771 117.085 35.9465C117.085 35.5159 117.015 35.1102 116.876 34.7282C116.737 34.3462 116.539 34.0142 116.283 33.7322C116.027 33.4502 115.721 33.2266 115.362 33.0585C115.003 32.8918 114.602 32.8084 114.155 32.8084C113.709 32.8084 113.307 32.8918 112.949 33.0585C112.59 33.2252 112.283 33.4502 112.027 33.7322C111.771 34.0142 111.574 34.3462 111.434 34.7282C111.294 35.1102 111.226 35.5173 111.226 35.9465C111.226 36.3757 111.296 36.7827 111.434 37.1648C111.572 37.5468 111.771 37.8788 112.027 38.1608C112.283 38.4428 112.59 38.6664 112.949 38.8345C113.307 39.0012 113.709 39.0845 114.155 39.0845Z" fill="#1BACE4"/>
<path d="M124.288 31.8569V31.8069L128.47 36.9995H128.513L132.385 31.8069V39.8847H131.17V35.3367H131.148L128.619 39.2082L125.525 35.3367H125.503V39.8847H124.288V31.8569Z" fill="#1BACE4"/>
<path d="M50.2689 14.1969H51.7904V19.4228H57.6055V14.1969H59.1271V26.781H57.6055V21.0217H51.7904V26.781H50.2689V14.1969Z" fill="#45AD4D"/>
<path d="M67.4771 27.1019C66.6212 27.1019 65.8337 26.9338 65.1161 26.5949C64.3971 26.2573 63.7821 25.7919 63.2699 25.2002C62.7577 24.6084 62.3564 23.9083 62.0661 23.1026C61.7758 22.2969 61.6306 21.4259 61.6306 20.4896C61.6306 19.5534 61.7758 18.6824 62.0661 17.8767C62.3564 17.071 62.7577 16.3723 63.2699 15.7791C63.7821 15.1859 64.3971 14.722 65.1161 14.3844C65.8337 14.0469 66.6212 13.8774 67.4771 13.8774C68.3331 13.8774 69.1192 14.0469 69.8382 14.3844C70.5559 14.722 71.1722 15.1873 71.6844 15.7791C72.1966 16.3723 72.5979 17.071 72.8882 17.8767C73.1785 18.6824 73.3237 19.5534 73.3237 20.4896C73.3237 21.4259 73.1785 22.2969 72.8882 23.1026C72.5979 23.9083 72.1966 24.607 71.6844 25.2002C71.1722 25.7933 70.5572 26.2573 69.8382 26.5949C69.1192 26.9324 68.3331 27.1019 67.4771 27.1019ZM67.4771 25.5016C68.1208 25.5016 68.7029 25.3683 69.2206 25.1016C69.7383 24.8348 70.182 24.4764 70.5518 24.0264C70.9215 23.5763 71.2064 23.0456 71.4077 22.4358C71.6077 21.826 71.709 21.1773 71.709 20.4896C71.709 19.802 71.609 19.1533 71.4077 18.5435C71.2064 17.9336 70.9215 17.403 70.5518 16.9529C70.182 16.5028 69.7383 16.1444 69.2206 15.8777C68.7029 15.611 68.1222 15.4777 67.4771 15.4777C66.8321 15.4777 66.2514 15.611 65.7337 15.8777C65.216 16.1444 64.7723 16.5028 64.4025 16.9529C64.0328 17.403 63.7479 17.9336 63.5466 18.5435C63.3452 19.1533 63.2453 19.802 63.2453 20.4896C63.2453 21.1773 63.3452 21.826 63.5466 22.4358C63.7465 23.0456 64.0328 23.5763 64.4025 24.0264C64.7723 24.4764 65.216 24.8348 65.7337 25.1016C66.2514 25.3683 66.8321 25.5016 67.4771 25.5016Z" fill="#45AD4D"/>
<path d="M75.8286 14.1969H79.7742C80.4919 14.1969 81.0835 14.3066 81.5491 14.5261C82.0134 14.7456 82.3805 15.0234 82.6503 15.361C82.9201 15.6985 83.1077 16.0778 83.2131 16.4987C83.3186 16.9196 83.372 17.3252 83.372 17.7169C83.372 18.1087 83.309 18.5074 83.1816 18.881C83.0543 19.2547 82.8721 19.5923 82.6352 19.8937C82.3983 20.1951 82.1066 20.4507 81.7642 20.6577C81.4204 20.8647 81.0383 20.9925 80.6151 21.0397L83.8007 26.781H81.8997L79.047 21.2356H77.3515V26.781H75.83V14.1969H75.8286ZM77.3501 19.7437H79.3469C79.6427 19.7437 79.9358 19.7173 80.2262 19.6631C80.5165 19.6103 80.7754 19.5117 81.0027 19.37C81.23 19.2283 81.4122 19.0227 81.5491 18.756C81.6861 18.4893 81.7546 18.142 81.7546 17.7169C81.7546 17.2919 81.6861 16.9432 81.5491 16.6765C81.4122 16.4098 81.23 16.2056 81.0027 16.0639C80.7754 15.9222 80.5165 15.8236 80.2262 15.7708C79.9358 15.718 79.6427 15.6902 79.3469 15.6902H77.3501V19.7423V19.7437Z" fill="#45AD4D"/>
<path d="M85.7167 14.1969V14.1191L91.7563 22.258H91.8193L97.4111 14.1191V26.781H95.6568V19.652H95.6253L91.97 25.7197L87.5012 19.652H87.4697V26.781H85.7153V14.1969H85.7167Z" fill="#45AD4D"/>
<path d="M101.816 14.1969V21.9107C101.816 22.3011 101.864 22.7081 101.958 23.1276C102.053 23.5485 102.211 23.9361 102.433 24.2917C102.655 24.6473 102.945 24.9376 103.304 25.1627C103.663 25.3877 104.107 25.5002 104.635 25.5002C105.164 25.5002 105.608 25.3877 105.967 25.1627C106.325 24.9376 106.616 24.6473 106.838 24.2917C107.06 23.9361 107.218 23.5485 107.313 23.1276C107.407 22.7067 107.455 22.3011 107.455 21.9107V14.1969H108.977V22.1774C108.977 22.9123 108.866 23.5791 108.644 24.1778C108.422 24.7765 108.115 25.2946 107.725 25.7336C107.335 26.1726 106.875 26.5101 106.346 26.7463C105.817 26.9838 105.248 27.1019 104.634 27.1019C104.021 27.1019 103.451 26.9838 102.922 26.7463C102.394 26.5087 101.935 26.1712 101.543 25.7336C101.153 25.296 100.846 24.7765 100.624 24.1778C100.402 23.5791 100.291 22.9137 100.291 22.1774V14.1969H101.813H101.816Z" fill="#45AD4D"/>
<path d="M113.288 14.1969V21.9107C113.288 22.3011 113.336 22.7081 113.431 23.1276C113.525 23.5485 113.684 23.9361 113.906 24.2917C114.128 24.6473 114.418 24.9376 114.777 25.1627C115.136 25.3877 115.579 25.5002 116.108 25.5002C116.637 25.5002 117.08 25.3877 117.439 25.1627C117.798 24.9376 118.088 24.6473 118.31 24.2917C118.532 23.9361 118.691 23.5485 118.786 23.1276C118.88 22.7067 118.928 22.3011 118.928 21.9107V14.1969H120.45V22.1774C120.45 22.9123 120.339 23.5791 120.117 24.1778C119.895 24.7765 119.588 25.2946 119.198 25.7336C118.807 26.1726 118.347 26.5101 117.819 26.7463C117.29 26.9838 116.72 27.1019 116.107 27.1019C115.493 27.1019 114.923 26.9838 114.395 26.7463C113.866 26.5087 113.407 26.1712 113.016 25.7336C112.625 25.296 112.319 24.7765 112.097 24.1778C111.875 23.5791 111.764 22.9137 111.764 22.1774V14.1969H113.285H113.288Z" fill="#45AD4D"/>
<path d="M123.193 14.1969H127.107C127.898 14.1969 128.594 14.2983 129.191 14.4997C129.788 14.7011 130.306 14.9706 130.744 15.3082C131.183 15.6457 131.547 16.0347 131.837 16.4723C132.128 16.9112 132.358 17.3613 132.526 17.8225C132.695 18.2851 132.816 18.7463 132.89 19.2089C132.964 19.6714 133.001 20.0979 133.001 20.4883C133.001 21.2939 132.87 22.0733 132.606 22.8262C132.341 23.5791 131.951 24.2486 131.433 24.8348C130.916 25.4211 130.273 25.892 129.508 26.2476C128.742 26.6032 127.857 26.781 126.853 26.781H123.193V14.1969ZM124.713 25.1821H126.63C127.274 25.1821 127.885 25.0849 128.46 24.889C129.035 24.6932 129.541 24.4 129.973 24.0097C130.406 23.618 130.75 23.1304 131.003 22.5428C131.257 21.9566 131.384 21.2717 131.384 20.4896C131.384 20.0868 131.326 19.6159 131.21 19.0769C131.094 18.5379 130.874 18.0253 130.553 17.5391C130.231 17.0529 129.784 16.6418 129.213 16.3042C128.642 15.9666 127.903 15.7972 126.995 15.7972H124.713V25.1821Z" fill="#45AD4D"/>
</svg>
