<svg width="127" height="127" viewBox="0 0 127 127" fill="none" xmlns="http://www.w3.org/2000/svg">
<g clip-path="url(#clip0_1_98)">
<rect width="127" height="127" rx="8" fill="white"/>
<path d="M15.875 47.625H47.625V15.875H15.875V47.625ZM21.1667 21.1667H42.3333V42.3333H21.1667V21.1667ZM26.4583 26.4583H37.0417V37.0417H26.4583V26.4583ZM79.375 47.625H111.125V15.875H79.375V47.625ZM84.6667 21.1667H105.833V42.3333H84.6667V21.1667ZM89.9583 26.4583H100.542V37.0417H89.9583V26.4583ZM15.875 111.125H47.625V79.375H15.875V111.125ZM21.1667 84.6667H42.3333V105.833H21.1667V84.6667ZM26.4583 89.9583H37.0417V100.542H26.4583V89.9583ZM105.833 100.542H111.125V111.125H100.542V95.25H105.833V100.542ZM105.833 84.6667H111.125V89.9583H105.833V84.6667ZM105.833 79.375V84.6667H100.542V79.375H105.833ZM52.9167 89.9583H58.2083V111.125H52.9167V89.9583ZM31.75 52.9167V63.5H21.1667V58.2083H15.875V52.9167H31.75ZM52.9167 37.0417H58.2083V42.3333H52.9167V37.0417ZM68.7917 21.1667V31.75H63.5V15.875H74.0833V21.1667H68.7917ZM52.9167 21.1667H58.2083V26.4583H52.9167V21.1667ZM105.833 63.5H111.125V74.0833H100.542V68.7917H105.833V63.5ZM100.542 52.9167V58.2083H89.9583V68.7917H79.375V63.5H84.6667V52.9167H100.542ZM63.5 74.0833H58.2083V68.7917H52.9167V63.5H63.5V74.0833ZM95.25 84.6667H100.542V89.9583H95.25V84.6667ZM105.833 58.2083V63.5H100.542V58.2083H105.833ZM58.2083 74.0833V79.375H52.9167V74.0833H58.2083ZM89.9583 100.542H95.25V111.125H84.6667V100.542H89.9583ZM74.0833 100.542H79.375V105.833H74.0833V111.125H63.5V105.833H68.7917V100.542H74.0833ZM74.0833 95.25V89.9583H84.6667V95.25H74.0833ZM74.0833 68.7917H79.375V84.6667H74.0833V89.9583H68.7917V95.25H63.5V84.6667H58.2083V79.375H74.0833V74.0833H68.7917V68.7917H74.0833ZM26.4583 68.7917V74.0833H21.1667V68.7917H26.4583ZM89.9583 89.9583H84.6667V84.6667H89.9583V89.9583ZM95.25 79.375H84.6667V74.0833H95.25V79.375ZM42.3333 52.9167H47.625V58.2083H42.3333V63.5H47.625V74.0833H42.3333V68.7917H37.0417V74.0833H31.75V63.5H37.0417V52.9167H42.3333ZM58.2083 52.9167V42.3333H74.0833V58.2083H63.5V52.9167H68.7917V47.625H63.5V52.9167H58.2083ZM58.2083 31.75H63.5V37.0417H58.2083V31.75ZM52.9167 52.9167H58.2083V58.2083H52.9167V52.9167ZM68.7917 37.0417V31.75H74.0833V37.0417H68.7917Z" fill="black"/>
</g>
<defs>
<clipPath id="clip0_1_98">
<rect width="127" height="127" rx="8" fill="white"/>
</clipPath>
</defs>
</svg>
